<svg width="1080" height="682" viewBox="0 0 1080 682" fill="none" xmlns="http://www.w3.org/2000/svg">
<rect width="1080" height="682" rx="16" fill="black"/>
<path d="M480.141 611.235L473.877 629.188H472.029L467.205 615.267L462.405 629.188H460.557L454.269 611.235H456.645L461.517 625.323L466.317 611.235H468.117L472.941 625.323L477.789 611.235H480.141ZM493.522 611.235V613.179H484.618V618.963H492.466V620.859H484.618V627.243H493.522V629.188H482.41V611.235H493.522ZM510.722 611.235V613.179H504.05V629.188H501.866V613.179H495.194V611.235H510.722ZM526.983 611.235V629.188H524.799V620.859H515.439V629.188H513.231V611.235H515.439V618.891H524.799V611.235H526.983ZM543.77 611.235C546.89 611.235 549.29 613.083 549.29 616.683C549.29 620.259 546.89 622.107 543.77 622.107H538.946V629.188H536.738V611.235H543.77ZM543.506 613.179H538.922V620.163H543.506C545.426 620.163 547.034 619.035 547.034 616.683C547.034 614.283 545.426 613.179 543.506 613.179ZM557.704 616.803V618.795C555.52 618.795 554.152 620.283 554.152 622.155V629.188H552.088V616.947H554.104V618.795C554.536 617.787 555.688 616.803 557.704 616.803ZM561.16 611.163C561.904 611.163 562.528 611.763 562.528 612.531C562.528 613.275 561.904 613.875 561.16 613.875C560.392 613.875 559.792 613.275 559.792 612.531C559.792 611.763 560.416 611.163 561.16 611.163ZM562.168 616.947V629.188H560.104V616.947H562.168ZM571.429 616.731C574.309 616.731 576.565 618.459 576.925 621.315L574.909 621.483C574.693 619.635 573.277 618.507 571.429 618.507C569.149 618.507 567.517 620.163 567.517 623.067C567.517 625.995 569.197 627.627 571.429 627.627C573.349 627.627 574.645 626.571 574.933 624.843L576.949 625.035C576.493 627.747 574.381 629.428 571.429 629.428C567.997 629.428 565.405 627.099 565.405 623.067C565.405 619.035 567.973 616.731 571.429 616.731ZM590.779 622.731V623.859H581.323C581.443 626.211 583.003 627.627 585.163 627.627C586.963 627.627 588.187 626.811 588.595 625.443L590.659 625.563C590.155 627.771 588.043 629.428 585.211 629.428C581.707 629.428 579.139 627.051 579.139 623.067C579.139 619.083 581.683 616.731 585.163 616.731C588.667 616.731 590.779 619.107 590.779 622.731ZM585.139 618.531C583.027 618.531 581.467 619.803 581.323 622.179H588.715C588.667 620.043 587.467 618.531 585.139 618.531Z" fill="#FAFBFB"/>
<path d="M502.407 538.509V550.477H500.967V540.477L498.855 542.093L498.135 540.957L501.335 538.509H502.407ZM505.434 548.733C505.962 548.733 506.394 549.165 506.394 549.693C506.394 550.205 505.962 550.637 505.434 550.637C504.922 550.637 504.506 550.205 504.506 549.693C504.506 549.165 504.922 548.733 505.434 548.733ZM512.173 538.349C514.765 538.349 516.461 540.541 516.461 544.493C516.461 548.445 514.765 550.637 512.173 550.637C509.549 550.637 507.853 548.445 507.853 544.493C507.853 540.541 509.549 538.349 512.173 538.349ZM512.157 539.661C510.317 539.661 509.341 541.325 509.341 544.493C509.341 547.661 510.317 549.325 512.157 549.325C513.981 549.325 514.989 547.661 514.989 544.493C514.989 541.325 513.981 539.661 512.157 539.661ZM522.376 538.349C524.968 538.349 526.664 540.541 526.664 544.493C526.664 548.445 524.968 550.637 522.376 550.637C519.752 550.637 518.056 548.445 518.056 544.493C518.056 540.541 519.752 538.349 522.376 538.349ZM522.36 539.661C520.52 539.661 519.544 541.325 519.544 544.493C519.544 547.661 520.52 549.325 522.36 549.325C524.184 549.325 525.192 547.661 525.192 544.493C525.192 541.325 524.184 539.661 522.36 539.661ZM532.579 538.349C535.171 538.349 536.867 540.541 536.867 544.493C536.867 548.445 535.171 550.637 532.579 550.637C529.955 550.637 528.259 548.445 528.259 544.493C528.259 540.541 529.955 538.349 532.579 538.349ZM532.563 539.661C530.723 539.661 529.747 541.325 529.747 544.493C529.747 547.661 530.723 549.325 532.563 549.325C534.387 549.325 535.395 547.661 535.395 544.493C535.395 541.325 534.387 539.661 532.563 539.661ZM542.782 538.349C545.374 538.349 547.07 540.541 547.07 544.493C547.07 548.445 545.374 550.637 542.782 550.637C540.158 550.637 538.462 548.445 538.462 544.493C538.462 540.541 540.158 538.349 542.782 538.349ZM542.766 539.661C540.926 539.661 539.95 541.325 539.95 544.493C539.95 547.661 540.926 549.325 542.766 549.325C544.59 549.325 545.598 547.661 545.598 544.493C545.598 541.325 544.59 539.661 542.766 539.661Z" fill="#FAFBFB"/>
<path d="M821.93 538.509V550.477H820.49V540.477L818.378 542.093L817.658 540.957L820.858 538.509H821.93ZM824.957 548.733C825.485 548.733 825.917 549.165 825.917 549.693C825.917 550.205 825.485 550.637 824.957 550.637C824.445 550.637 824.029 550.205 824.029 549.693C824.029 549.165 824.445 548.733 824.957 548.733ZM831.696 538.349C834.288 538.349 835.984 540.541 835.984 544.493C835.984 548.445 834.288 550.637 831.696 550.637C829.072 550.637 827.376 548.445 827.376 544.493C827.376 540.541 829.072 538.349 831.696 538.349ZM831.68 539.661C829.84 539.661 828.864 541.325 828.864 544.493C828.864 547.661 829.84 549.325 831.68 549.325C833.504 549.325 834.512 547.661 834.512 544.493C834.512 541.325 833.504 539.661 831.68 539.661ZM841.899 538.349C844.491 538.349 846.187 540.541 846.187 544.493C846.187 548.445 844.491 550.637 841.899 550.637C839.275 550.637 837.579 548.445 837.579 544.493C837.579 540.541 839.275 538.349 841.899 538.349ZM841.883 539.661C840.043 539.661 839.067 541.325 839.067 544.493C839.067 547.661 840.043 549.325 841.883 549.325C843.707 549.325 844.715 547.661 844.715 544.493C844.715 541.325 843.707 539.661 841.883 539.661ZM852.102 538.349C854.694 538.349 856.39 540.541 856.39 544.493C856.39 548.445 854.694 550.637 852.102 550.637C849.478 550.637 847.782 548.445 847.782 544.493C847.782 540.541 849.478 538.349 852.102 538.349ZM852.086 539.661C850.246 539.661 849.27 541.325 849.27 544.493C849.27 547.661 850.246 549.325 852.086 549.325C853.91 549.325 854.918 547.661 854.918 544.493C854.918 541.325 853.91 539.661 852.086 539.661ZM861.617 538.509V550.477H860.177V540.477L858.065 542.093L857.345 540.957L860.545 538.509H861.617Z" fill="#FAFBFB"/>
<path d="M185.309 538.349C187.901 538.349 189.597 540.541 189.597 544.493C189.597 548.445 187.901 550.637 185.309 550.637C182.685 550.637 180.989 548.445 180.989 544.493C180.989 540.541 182.685 538.349 185.309 538.349ZM185.293 539.661C183.453 539.661 182.477 541.325 182.477 544.493C182.477 547.661 183.453 549.325 185.293 549.325C187.117 549.325 188.125 547.661 188.125 544.493C188.125 541.325 187.117 539.661 185.293 539.661ZM191.914 548.733C192.442 548.733 192.874 549.165 192.874 549.693C192.874 550.205 192.442 550.637 191.914 550.637C191.402 550.637 190.986 550.205 190.986 549.693C190.986 549.165 191.402 548.733 191.914 548.733ZM198.207 538.349C200.511 538.349 202.223 539.869 202.223 542.237C202.223 543.229 201.919 544.029 201.407 544.717L197.103 550.477H195.375L198.607 546.141C198.479 546.157 198.351 546.157 198.207 546.157C195.935 546.157 194.207 544.605 194.207 542.237C194.207 539.869 195.935 538.349 198.207 538.349ZM198.207 544.877C199.055 544.877 199.759 544.573 200.223 543.981C200.559 543.549 200.751 542.989 200.751 542.285C200.751 540.669 199.679 539.661 198.207 539.661C196.767 539.661 195.679 540.669 195.679 542.285C195.679 543.901 196.767 544.877 198.207 544.877ZM207.582 538.349C209.886 538.349 211.598 539.869 211.598 542.237C211.598 543.229 211.294 544.029 210.782 544.717L206.478 550.477H204.75L207.982 546.141C207.854 546.157 207.726 546.157 207.582 546.157C205.31 546.157 203.582 544.605 203.582 542.237C203.582 539.869 205.31 538.349 207.582 538.349ZM207.582 544.877C208.43 544.877 209.134 544.573 209.598 543.981C209.934 543.549 210.126 542.989 210.126 542.285C210.126 540.669 209.054 539.661 207.582 539.661C206.142 539.661 205.054 540.669 205.054 542.285C205.054 543.901 206.142 544.877 207.582 544.877ZM216.957 538.349C219.261 538.349 220.973 539.869 220.973 542.237C220.973 543.229 220.669 544.029 220.157 544.717L215.853 550.477H214.125L217.357 546.141C217.229 546.157 217.101 546.157 216.957 546.157C214.685 546.157 212.957 544.605 212.957 542.237C212.957 539.869 214.685 538.349 216.957 538.349ZM216.957 544.877C217.805 544.877 218.509 544.573 218.973 543.981C219.309 543.549 219.501 542.989 219.501 542.285C219.501 540.669 218.429 539.661 216.957 539.661C215.517 539.661 214.429 540.669 214.429 542.285C214.429 543.901 215.517 544.877 216.957 544.877ZM226.332 538.349C228.636 538.349 230.348 539.869 230.348 542.237C230.348 543.229 230.044 544.029 229.532 544.717L225.228 550.477H223.5L226.732 546.141C226.604 546.157 226.476 546.157 226.332 546.157C224.06 546.157 222.332 544.605 222.332 542.237C222.332 539.869 224.06 538.349 226.332 538.349ZM226.332 544.877C227.18 544.877 227.884 544.573 228.348 543.981C228.684 543.549 228.876 542.989 228.876 542.285C228.876 540.669 227.804 539.661 226.332 539.661C224.892 539.661 223.804 540.669 223.804 542.285C223.804 543.901 224.892 544.877 226.332 544.877Z" fill="#FAFBFB"/>
<path d="M994.787 512.783C994.982 512.588 994.982 512.271 994.787 512.076L991.605 508.894C991.41 508.699 991.093 508.699 990.898 508.894C990.703 509.089 990.703 509.406 990.898 509.601L993.726 512.43L990.898 515.258C990.703 515.453 990.703 515.77 990.898 515.965C991.093 516.16 991.41 516.16 991.605 515.965L994.787 512.783ZM86 512.93L994.434 512.93V511.93L86 511.93V512.93Z" fill="#B5BECA"/>
<path d="M87.1074 70.6494C86.9122 70.4541 86.5956 70.4541 86.4003 70.6494L83.2184 73.8314C83.0231 74.0266 83.0231 74.3432 83.2184 74.5385C83.4136 74.7338 83.7302 74.7338 83.9255 74.5385L86.7539 71.7101L89.5823 74.5385C89.7776 74.7338 90.0942 74.7338 90.2894 74.5385C90.4847 74.3432 90.4847 74.0266 90.2894 73.8314L87.1074 70.6494ZM87.2539 513.187L87.2539 71.003L86.2539 71.003L86.2539 513.188L87.2539 513.187Z" fill="#B5BECA"/>
<path d="M840.273 517.695L840.273 507.919" stroke="#B5BECA"/>
<path d="M522.918 517.695L522.918 507.919" stroke="#B5BECA"/>
<path d="M207.074 517.695L207.074 507.919" stroke="#B5BECA"/>
<path d="M527.434 103.336H835.76V507.92H527.434V103.336Z" fill="url(#paint0_linear_2813_28933)" fill-opacity="0.6"/>
<g clip-path="url(#clip0_2813_28933)">
<path d="M674.28 309.553L672.785 308.265L673.099 306.886L675.033 299.376L680.846 289.969L683.539 291.433L680.846 295.456L674.084 306.399L681.892 306.219L684.795 308.264L686.064 309.553L688.527 311.607L680.695 322.366L678.187 320.635L680.846 317.074V314.316L674.786 312.57L673.704 311.541L674.28 309.553Z" fill="#183240"/>
<path d="M680.848 329.962C694.08 329.962 704.806 319.236 704.806 306.004C704.806 292.773 694.08 282.047 680.848 282.047C667.617 282.047 656.891 292.773 656.891 306.004C656.891 319.236 667.617 329.962 680.848 329.962Z" fill="url(#paint1_linear_2813_28933)"/>
<path opacity="0.2" d="M695.824 320.879C704.038 312.609 703.994 299.245 695.724 291.03C687.453 282.816 674.089 282.86 665.875 291.13L695.824 320.879Z" fill="white"/>
<path d="M681.989 315.533C681.614 315.579 681.232 315.605 680.846 315.605C675.629 315.605 671.385 311.36 671.385 306.144C671.385 301.971 674.101 298.423 677.859 297.169L680.629 292.68C673.303 292.796 667.379 298.79 667.379 306.145C667.379 312.984 672.502 318.648 679.114 319.502L681.991 315.535L681.989 315.533Z" fill="white"/>
<path d="M671.385 306.144C671.385 301.971 674.101 298.423 677.859 297.169L680.629 292.68C673.303 292.796 667.379 298.79 667.379 306.145H671.386L671.385 306.144Z" fill="url(#paint2_linear_2813_28933)"/>
<path d="M682.486 292.773L680.055 296.716C680.315 296.694 680.577 296.68 680.843 296.68C686.06 296.68 690.304 300.925 690.304 306.141C690.304 310.121 687.833 313.533 684.346 314.928L680.95 319.608C688.327 319.55 694.311 313.532 694.311 306.141C694.311 299.271 689.14 293.587 682.486 292.773Z" fill="white"/>
<path d="M690.307 306.141C690.307 310.12 687.836 313.532 684.349 314.927L680.953 319.607C688.33 319.55 694.314 313.531 694.314 306.141H690.307Z" fill="url(#paint3_linear_2813_28933)"/>
<path d="M674.432 308.26L680.848 311.957L687.269 308.26L680.848 317.079L674.432 308.26ZM674.086 306.404L680.849 295.461L687.613 306.404L680.849 310.303L674.087 306.404H674.086Z" fill="white"/>
<path d="M681.128 390.326C727.489 390.171 764.946 352.462 764.791 306.1C764.636 259.739 726.927 222.282 680.565 222.437C634.204 222.593 596.747 260.302 596.902 306.663C597.058 353.024 634.767 390.481 681.128 390.326Z" fill="url(#paint4_linear_2813_28933)"/>
<path opacity="0.2" d="M733.317 358.519C762.1 329.544 761.956 282.695 732.981 253.913C704.007 225.131 657.157 225.275 628.375 254.249L733.317 358.519Z" fill="white"/>
<path d="M677.418 273.231C678.545 273.116 679.689 273.057 680.846 273.057C699.246 273.057 714.162 287.973 714.162 306.373C714.162 320.721 705.092 332.951 692.372 337.641L681.068 353.539C707.015 353.42 728.012 332.348 728.012 306.373C728.012 281.982 709.498 261.915 685.756 259.459L677.418 273.231Z" fill="white"/>
<path d="M679.776 259.219C654.221 259.788 633.68 280.682 633.68 306.373C633.68 330.409 651.658 350.245 674.901 353.168L684.637 339.476C683.393 339.617 682.128 339.689 680.846 339.689C662.446 339.689 647.53 324.773 647.53 306.373C647.53 291.629 657.109 279.121 670.382 274.734L679.776 259.219Z" fill="white"/>
<path d="M692.374 337.635C705.094 332.945 714.164 320.715 714.164 306.367H728.015C728.015 332.342 707.017 353.414 681.07 353.533L692.374 337.635Z" fill="url(#paint5_linear_2813_28933)"/>
<path d="M679.776 259.219C654.221 259.788 633.68 280.682 633.68 306.373C633.68 306.373 647.53 306.572 647.53 306.373C647.53 291.629 657.109 279.121 670.382 274.734L679.776 259.219Z" fill="url(#paint6_linear_2813_28933)"/>
<path d="M680.76 344.929L704.442 311.578L680.76 325.554L657.09 311.578L680.76 344.929Z" fill="white"/>
<path opacity="0.1" d="M680.762 344.929L704.444 311.578L680.762 325.554V344.929Z" fill="#4C52F9"/>
<path d="M680.687 321.125L704.487 307.123L680.687 267.812L656.887 307.123L680.687 321.125Z" fill="url(#paint7_linear_2813_28933)"/>
<path d="M680.687 321.125L704.487 307.123L680.687 267.812L656.887 307.123L680.687 321.125Z" fill="white"/>
<path opacity="0.1" d="M680.687 321.124L656.887 307.123L680.688 267.812L680.687 321.124Z" fill="#4C52F9"/>
<path opacity="0.1" d="M680.687 321.129V295.969L656.887 307.127L680.687 321.129Z" fill="#4C52F9"/>
<path opacity="0.1" d="M680.688 321.129V295.969L704.488 307.127L680.688 321.129Z" fill="#4C52F9"/>
</g>
<defs>
<linearGradient id="paint0_linear_2813_28933" x1="527.434" y1="305.628" x2="835.76" y2="305.628" gradientUnits="userSpaceOnUse">
<stop stop-color="#1A82FF"/>
<stop offset="0.5" stop-color="#7A26F3"/>
<stop offset="1" stop-color="#D6453B"/>
</linearGradient>
<linearGradient id="paint1_linear_2813_28933" x1="656.891" y1="306.004" x2="704.806" y2="306.004" gradientUnits="userSpaceOnUse">
<stop offset="0.25" stop-color="#1A82FF"/>
<stop offset="0.5" stop-color="#7A26F3"/>
<stop offset="0.74" stop-color="#D6453B"/>
</linearGradient>
<linearGradient id="paint2_linear_2813_28933" x1="689.341" y1="286.031" x2="669.868" y2="302.625" gradientUnits="userSpaceOnUse">
<stop stop-color="#4C52F9" stop-opacity="0.5"/>
<stop offset="1" stop-color="white"/>
</linearGradient>
<linearGradient id="paint3_linear_2813_28933" x1="672.043" y1="323.014" x2="686.854" y2="313.346" gradientUnits="userSpaceOnUse">
<stop stop-color="#4C52F9" stop-opacity="0.5"/>
<stop offset="1" stop-color="white"/>
</linearGradient>
<linearGradient id="paint4_linear_2813_28933" x1="596.902" y1="306.663" x2="764.791" y2="306.1" gradientUnits="userSpaceOnUse">
<stop offset="0.25" stop-color="#1A82FF"/>
<stop offset="0.5" stop-color="#7A26F3"/>
<stop offset="0.74" stop-color="#D6453B"/>
</linearGradient>
<linearGradient id="paint5_linear_2813_28933" x1="649.794" y1="365.465" x2="701.739" y2="331.439" gradientUnits="userSpaceOnUse">
<stop stop-color="#4C52F9" stop-opacity="0.5"/>
<stop offset="1" stop-color="white"/>
</linearGradient>
<linearGradient id="paint6_linear_2813_28933" x1="706.301" y1="237.508" x2="656.6" y2="273.419" gradientUnits="userSpaceOnUse">
<stop stop-color="#4C52F9" stop-opacity="0.5"/>
<stop offset="1" stop-color="white"/>
</linearGradient>
<linearGradient id="paint7_linear_2813_28933" x1="630.052" y1="282.048" x2="671.749" y2="307.493" gradientUnits="userSpaceOnUse">
<stop stop-color="#1C313F"/>
<stop offset="1" stop-color="white"/>
</linearGradient>
<clipPath id="clip0_2813_28933">
<rect width="168.451" height="168.451" fill="white" transform="translate(596.621 222.156)"/>
</clipPath>
</defs>
</svg>
