<svg width="608" height="388" viewBox="0 0 608 388" fill="none" xmlns="http://www.w3.org/2000/svg">
<path d="M251.221 362.548L244.957 380.5H243.109L238.285 366.58L233.485 380.5H231.637L225.349 362.548H227.725L232.597 376.636L237.397 362.548H239.197L244.021 376.636L248.869 362.548H251.221ZM264.602 362.548V364.492H255.698V370.276H263.546V372.172H255.698V378.556H264.602V380.5H253.49V362.548H264.602ZM281.802 362.548V364.492H275.13V380.5H272.946V364.492H266.274V362.548H281.802ZM298.063 362.548V380.5H295.879V372.172H286.519V380.5H284.311V362.548H286.519V370.204H295.879V362.548H298.063ZM314.85 362.548C317.97 362.548 320.37 364.396 320.37 367.996C320.37 371.572 317.97 373.42 314.85 373.42H310.026V380.5H307.818V362.548H314.85ZM314.586 364.492H310.002V371.476H314.586C316.506 371.476 318.114 370.348 318.114 367.996C318.114 365.596 316.506 364.492 314.586 364.492ZM328.784 368.116V370.108C326.6 370.108 325.232 371.596 325.232 373.468V380.5H323.168V368.26H325.184V370.108C325.616 369.1 326.768 368.116 328.784 368.116ZM332.24 362.476C332.984 362.476 333.608 363.076 333.608 363.844C333.608 364.588 332.984 365.188 332.24 365.188C331.472 365.188 330.872 364.588 330.872 363.844C330.872 363.076 331.496 362.476 332.24 362.476ZM333.248 368.26V380.5H331.184V368.26H333.248ZM342.509 368.044C345.389 368.044 347.645 369.772 348.005 372.628L345.989 372.796C345.773 370.948 344.357 369.82 342.509 369.82C340.229 369.82 338.597 371.476 338.597 374.38C338.597 377.308 340.277 378.94 342.509 378.94C344.429 378.94 345.725 377.884 346.013 376.156L348.029 376.348C347.573 379.06 345.461 380.74 342.509 380.74C339.077 380.74 336.485 378.412 336.485 374.38C336.485 370.348 339.053 368.044 342.509 368.044ZM361.86 374.044V375.172H352.404C352.524 377.524 354.084 378.94 356.244 378.94C358.044 378.94 359.268 378.124 359.676 376.756L361.74 376.876C361.236 379.084 359.124 380.74 356.292 380.74C352.788 380.74 350.22 378.364 350.22 374.38C350.22 370.396 352.764 368.044 356.244 368.044C359.748 368.044 361.86 370.42 361.86 374.044ZM356.22 369.844C354.108 369.844 352.548 371.116 352.404 373.492H359.796C359.748 371.356 358.548 369.844 356.22 369.844Z" fill="#FAFBFB"/>
<path d="M273.487 314.532V326.5H272.047V316.5L269.935 318.116L269.215 316.98L272.415 314.532H273.487ZM276.514 324.756C277.042 324.756 277.474 325.188 277.474 325.716C277.474 326.228 277.042 326.66 276.514 326.66C276.002 326.66 275.586 326.228 275.586 325.716C275.586 325.188 276.002 324.756 276.514 324.756ZM283.253 314.372C285.845 314.372 287.541 316.564 287.541 320.516C287.541 324.468 285.845 326.66 283.253 326.66C280.629 326.66 278.933 324.468 278.933 320.516C278.933 316.564 280.629 314.372 283.253 314.372ZM283.237 315.684C281.397 315.684 280.421 317.348 280.421 320.516C280.421 323.684 281.397 325.348 283.237 325.348C285.061 325.348 286.069 323.684 286.069 320.516C286.069 317.348 285.061 315.684 283.237 315.684ZM293.456 314.372C296.048 314.372 297.744 316.564 297.744 320.516C297.744 324.468 296.048 326.66 293.456 326.66C290.832 326.66 289.136 324.468 289.136 320.516C289.136 316.564 290.832 314.372 293.456 314.372ZM293.44 315.684C291.6 315.684 290.624 317.348 290.624 320.516C290.624 323.684 291.6 325.348 293.44 325.348C295.264 325.348 296.272 323.684 296.272 320.516C296.272 317.348 295.264 315.684 293.44 315.684ZM303.659 314.372C306.251 314.372 307.947 316.564 307.947 320.516C307.947 324.468 306.251 326.66 303.659 326.66C301.035 326.66 299.339 324.468 299.339 320.516C299.339 316.564 301.035 314.372 303.659 314.372ZM303.643 315.684C301.803 315.684 300.827 317.348 300.827 320.516C300.827 323.684 301.803 325.348 303.643 325.348C305.467 325.348 306.475 323.684 306.475 320.516C306.475 317.348 305.467 315.684 303.643 315.684ZM313.862 314.372C316.454 314.372 318.15 316.564 318.15 320.516C318.15 324.468 316.454 326.66 313.862 326.66C311.238 326.66 309.542 324.468 309.542 320.516C309.542 316.564 311.238 314.372 313.862 314.372ZM313.846 315.684C312.006 315.684 311.03 317.348 311.03 320.516C311.03 323.684 312.006 325.348 313.846 325.348C315.67 325.348 316.678 323.684 316.678 320.516C316.678 317.348 315.67 315.684 313.846 315.684Z" fill="#FAFBFB"/>
<path d="M486.659 314.532V326.5H485.219V316.5L483.107 318.116L482.387 316.98L485.587 314.532H486.659ZM489.686 324.756C490.214 324.756 490.646 325.188 490.646 325.716C490.646 326.228 490.214 326.66 489.686 326.66C489.174 326.66 488.758 326.228 488.758 325.716C488.758 325.188 489.174 324.756 489.686 324.756ZM496.425 314.372C499.017 314.372 500.713 316.564 500.713 320.516C500.713 324.468 499.017 326.66 496.425 326.66C493.801 326.66 492.105 324.468 492.105 320.516C492.105 316.564 493.801 314.372 496.425 314.372ZM496.409 315.684C494.569 315.684 493.593 317.348 493.593 320.516C493.593 323.684 494.569 325.348 496.409 325.348C498.233 325.348 499.241 323.684 499.241 320.516C499.241 317.348 498.233 315.684 496.409 315.684ZM506.628 314.372C509.22 314.372 510.916 316.564 510.916 320.516C510.916 324.468 509.22 326.66 506.628 326.66C504.004 326.66 502.308 324.468 502.308 320.516C502.308 316.564 504.004 314.372 506.628 314.372ZM506.612 315.684C504.772 315.684 503.796 317.348 503.796 320.516C503.796 323.684 504.772 325.348 506.612 325.348C508.436 325.348 509.444 323.684 509.444 320.516C509.444 317.348 508.436 315.684 506.612 315.684ZM516.831 314.372C519.423 314.372 521.119 316.564 521.119 320.516C521.119 324.468 519.423 326.66 516.831 326.66C514.207 326.66 512.511 324.468 512.511 320.516C512.511 316.564 514.207 314.372 516.831 314.372ZM516.815 315.684C514.975 315.684 513.999 317.348 513.999 320.516C513.999 323.684 514.975 325.348 516.815 325.348C518.639 325.348 519.647 323.684 519.647 320.516C519.647 317.348 518.639 315.684 516.815 315.684ZM526.346 314.532V326.5H524.906V316.5L522.794 318.116L522.074 316.98L525.274 314.532H526.346Z" fill="#FAFBFB"/>
<path d="M62.7372 314.372C65.3292 314.372 67.0252 316.564 67.0252 320.516C67.0252 324.468 65.3292 326.66 62.7372 326.66C60.1132 326.66 58.4172 324.468 58.4172 320.516C58.4172 316.564 60.1132 314.372 62.7372 314.372ZM62.7212 315.684C60.8812 315.684 59.9052 317.348 59.9052 320.516C59.9052 323.684 60.8812 325.348 62.7212 325.348C64.5452 325.348 65.5532 323.684 65.5532 320.516C65.5532 317.348 64.5452 315.684 62.7212 315.684ZM69.3422 324.756C69.8702 324.756 70.3022 325.188 70.3022 325.716C70.3022 326.228 69.8702 326.66 69.3422 326.66C68.8302 326.66 68.4142 326.228 68.4142 325.716C68.4142 325.188 68.8302 324.756 69.3422 324.756ZM75.6348 314.372C77.9388 314.372 79.6508 315.892 79.6508 318.26C79.6508 319.252 79.3468 320.052 78.8348 320.74L74.5308 326.5H72.8028L76.0348 322.164C75.9068 322.18 75.7788 322.18 75.6348 322.18C73.3628 322.18 71.6348 320.628 71.6348 318.26C71.6348 315.892 73.3628 314.372 75.6348 314.372ZM75.6348 320.9C76.4828 320.9 77.1868 320.596 77.6508 320.004C77.9868 319.572 78.1788 319.012 78.1788 318.308C78.1788 316.692 77.1068 315.684 75.6348 315.684C74.1948 315.684 73.1068 316.692 73.1068 318.308C73.1068 319.924 74.1948 320.9 75.6348 320.9ZM85.0098 314.372C87.3138 314.372 89.0258 315.892 89.0258 318.26C89.0258 319.252 88.7218 320.052 88.2098 320.74L83.9058 326.5H82.1778L85.4098 322.164C85.2818 322.18 85.1538 322.18 85.0098 322.18C82.7378 322.18 81.0098 320.628 81.0098 318.26C81.0098 315.892 82.7378 314.372 85.0098 314.372ZM85.0098 320.9C85.8578 320.9 86.5618 320.596 87.0258 320.004C87.3618 319.572 87.5538 319.012 87.5538 318.308C87.5538 316.692 86.4818 315.684 85.0098 315.684C83.5698 315.684 82.4818 316.692 82.4818 318.308C82.4818 319.924 83.5698 320.9 85.0098 320.9ZM94.3848 314.372C96.6888 314.372 98.4008 315.892 98.4008 318.26C98.4008 319.252 98.0968 320.052 97.5848 320.74L93.2808 326.5H91.5528L94.7848 322.164C94.6568 322.18 94.5288 322.18 94.3848 322.18C92.1128 322.18 90.3848 320.628 90.3848 318.26C90.3848 315.892 92.1128 314.372 94.3848 314.372ZM94.3848 320.9C95.2328 320.9 95.9368 320.596 96.4008 320.004C96.7368 319.572 96.9288 319.012 96.9288 318.308C96.9288 316.692 95.8568 315.684 94.3848 315.684C92.9448 315.684 91.8568 316.692 91.8568 318.308C91.8568 319.924 92.9448 320.9 94.3848 320.9ZM103.76 314.372C106.064 314.372 107.776 315.892 107.776 318.26C107.776 319.252 107.472 320.052 106.96 320.74L102.656 326.5H100.928L104.16 322.164C104.032 322.18 103.904 322.18 103.76 322.18C101.488 322.18 99.7598 320.628 99.7598 318.26C99.7598 315.892 101.488 314.372 103.76 314.372ZM103.76 320.9C104.608 320.9 105.312 320.596 105.776 320.004C106.112 319.572 106.304 319.012 106.304 318.308C106.304 316.692 105.232 315.684 103.76 315.684C102.32 315.684 101.232 316.692 101.232 318.308C101.232 319.924 102.32 320.9 103.76 320.9Z" fill="#FAFBFB"/>
<path d="M607.854 294.854C608.049 294.658 608.049 294.342 607.854 294.146L604.672 290.964C604.476 290.769 604.16 290.769 603.964 290.964C603.769 291.16 603.769 291.476 603.964 291.672L606.793 294.5L603.964 297.328C603.769 297.524 603.769 297.84 603.964 298.036C604.16 298.231 604.476 298.231 604.672 298.036L607.854 294.854ZM3.5 295L607.5 295V294L3.5 294V295Z" fill="#B5BECA"/>
<path d="M4.35354 0.646454C4.15828 0.451172 3.8417 0.451172 3.64643 0.646454L0.464454 3.82843C0.269191 4.02368 0.269191 4.34027 0.464454 4.53552C0.659716 4.7308 0.976298 4.7308 1.17156 4.53552L3.99999 1.70709L6.82841 4.53552C7.02368 4.7308 7.34026 4.7308 7.53552 4.53552C7.73078 4.34027 7.73078 4.02368 7.53552 3.82843L4.35354 0.646454ZM4.50001 295L4.49999 1L3.49999 1L3.50001 295L4.50001 295Z" fill="#B5BECA"/>
<path d="M505 298L505 291.5" stroke="#B5BECA"/>
<path d="M294 298L294 291.5" stroke="#B5BECA"/>
<path d="M84 298L84 291.5" stroke="#B5BECA"/>
<path d="M297 22.5H502V291.5H297V22.5Z" fill="url(#paint0_linear_2587_28684)" fill-opacity="0.6"/>
<g clip-path="url(#clip0_2587_28684)">
<path d="M394.634 159.607L393.641 158.751L393.849 157.834L395.135 152.841L399 146.586L400.791 147.56L399 150.234L394.504 157.51L399.696 157.391L401.626 158.75L402.469 159.607L404.107 160.973L398.9 168.126L397.232 166.975L399 164.607V162.774L394.971 161.613L394.252 160.929L394.634 159.607Z" fill="#183240"/>
<path d="M398.999 173.178C407.796 173.178 414.928 166.046 414.928 157.249C414.928 148.452 407.796 141.32 398.999 141.32C390.202 141.32 383.07 148.452 383.07 157.249C383.07 166.046 390.202 173.178 398.999 173.178Z" fill="url(#paint1_linear_2587_28684)"/>
<path opacity="0.2" d="M408.955 167.142C414.417 161.643 414.388 152.757 408.889 147.296C403.39 141.834 394.505 141.863 389.043 147.362L408.955 167.142Z" fill="white"/>
<path d="M399.761 163.586C399.511 163.616 399.258 163.633 399.001 163.633C395.532 163.633 392.71 160.811 392.71 157.343C392.71 154.568 394.516 152.209 397.015 151.376L398.857 148.391C393.986 148.468 390.047 152.454 390.047 157.343C390.047 161.891 393.453 165.656 397.849 166.224L399.762 163.586L399.761 163.586Z" fill="white"/>
<path d="M392.71 157.343C392.71 154.568 394.516 152.209 397.015 151.376L398.857 148.391C393.986 148.468 390.047 152.454 390.047 157.343H392.711L392.71 157.343Z" fill="url(#paint2_linear_2587_28684)"/>
<path d="M400.093 148.453L398.477 151.075C398.65 151.06 398.824 151.051 399.001 151.051C402.469 151.051 405.291 153.873 405.291 157.341C405.291 159.987 403.648 162.256 401.33 163.183L399.072 166.295C403.976 166.257 407.955 162.255 407.955 157.341C407.955 152.773 404.517 148.994 400.093 148.453Z" fill="white"/>
<path d="M405.29 157.344C405.29 159.99 403.647 162.258 401.328 163.186L399.07 166.297C403.975 166.259 407.954 162.257 407.954 157.344H405.29Z" fill="url(#paint3_linear_2587_28684)"/>
<path d="M394.734 158.752L399 161.21L403.269 158.752L399 164.616L394.734 158.752ZM394.504 157.518L399.001 150.242L403.498 157.518L399.001 160.11L394.505 157.518H394.504Z" fill="white"/>
<path d="M399.187 213.314C430.012 213.211 454.916 188.139 454.813 157.314C454.71 126.489 429.638 101.585 398.813 101.688C367.988 101.791 343.084 126.863 343.187 157.688C343.29 188.513 368.362 213.417 399.187 213.314Z" fill="url(#paint4_linear_2587_28684)"/>
<path opacity="0.2" d="M433.887 192.16C453.024 172.895 452.928 141.746 433.664 122.609C414.399 103.472 383.25 103.568 364.113 122.833L433.887 192.16Z" fill="white"/>
<path d="M396.722 135.457C397.471 135.381 398.231 135.342 399.001 135.342C411.234 135.342 421.152 145.259 421.152 157.493C421.152 167.033 415.121 175.164 406.664 178.282L399.148 188.852C416.4 188.773 430.361 174.763 430.361 157.493C430.361 141.276 418.051 127.933 402.265 126.301L396.722 135.457Z" fill="white"/>
<path d="M398.289 126.141C381.298 126.519 367.641 140.411 367.641 157.493C367.641 173.474 379.594 186.662 395.048 188.606L401.521 179.502C400.694 179.596 399.853 179.644 399.001 179.644C386.767 179.644 376.85 169.726 376.85 157.493C376.85 147.689 383.218 139.373 392.044 136.456L398.289 126.141Z" fill="white"/>
<path d="M406.664 178.282C415.121 175.163 421.152 167.032 421.152 157.492H430.361C430.361 174.763 416.4 188.772 399.148 188.852L406.664 178.282Z" fill="url(#paint5_linear_2587_28684)"/>
<path d="M398.289 126.141C381.298 126.519 367.641 140.411 367.641 157.493C367.641 157.493 376.85 157.625 376.85 157.493C376.85 147.689 383.218 139.373 392.044 136.456L398.289 126.141Z" fill="url(#paint6_linear_2587_28684)"/>
<path d="M398.945 183.127L414.691 160.953L398.945 170.246L383.207 160.953L398.945 183.127Z" fill="white"/>
<path opacity="0.1" d="M398.941 183.127L414.687 160.953L398.941 170.246V183.127Z" fill="#4C52F9"/>
<path d="M398.895 167.306L414.719 157.996L398.895 131.859L383.07 157.996L398.895 167.306Z" fill="url(#paint7_linear_2587_28684)"/>
<path d="M398.895 167.306L414.719 157.996L398.895 131.859L383.07 157.996L398.895 167.306Z" fill="white"/>
<path opacity="0.1" d="M398.895 167.305L383.07 157.996L398.895 131.859L398.895 167.305Z" fill="#4C52F9"/>
<path opacity="0.1" d="M398.895 167.306V150.578L383.07 157.997L398.895 167.306Z" fill="#4C52F9"/>
<path opacity="0.1" d="M398.894 167.306V150.578L414.719 157.997L398.894 167.306Z" fill="#4C52F9"/>
</g>
<defs>
<linearGradient id="paint0_linear_2587_28684" x1="297" y1="157" x2="502" y2="157" gradientUnits="userSpaceOnUse">
<stop stop-color="#1A82FF"/>
<stop offset="0.5" stop-color="#7A26F3"/>
<stop offset="1" stop-color="#D6453B"/>
</linearGradient>
<linearGradient id="paint1_linear_2587_28684" x1="383.07" y1="157.249" x2="414.928" y2="157.249" gradientUnits="userSpaceOnUse">
<stop offset="0.25" stop-color="#1A82FF"/>
<stop offset="0.5" stop-color="#7A26F3"/>
<stop offset="0.74" stop-color="#D6453B"/>
</linearGradient>
<linearGradient id="paint2_linear_2587_28684" x1="404.649" y1="143.97" x2="391.702" y2="155.003" gradientUnits="userSpaceOnUse">
<stop stop-color="#4C52F9" stop-opacity="0.5"/>
<stop offset="1" stop-color="white"/>
</linearGradient>
<linearGradient id="paint3_linear_2587_28684" x1="393.146" y1="168.562" x2="402.994" y2="162.134" gradientUnits="userSpaceOnUse">
<stop stop-color="#4C52F9" stop-opacity="0.5"/>
<stop offset="1" stop-color="white"/>
</linearGradient>
<linearGradient id="paint4_linear_2587_28684" x1="343.187" y1="157.688" x2="454.813" y2="157.314" gradientUnits="userSpaceOnUse">
<stop offset="0.25" stop-color="#1A82FF"/>
<stop offset="0.5" stop-color="#7A26F3"/>
<stop offset="0.74" stop-color="#D6453B"/>
</linearGradient>
<linearGradient id="paint5_linear_2587_28684" x1="378.354" y1="196.785" x2="412.891" y2="174.162" gradientUnits="userSpaceOnUse">
<stop stop-color="#4C52F9" stop-opacity="0.5"/>
<stop offset="1" stop-color="white"/>
</linearGradient>
<linearGradient id="paint6_linear_2587_28684" x1="415.925" y1="111.706" x2="382.88" y2="135.582" gradientUnits="userSpaceOnUse">
<stop stop-color="#4C52F9" stop-opacity="0.5"/>
<stop offset="1" stop-color="white"/>
</linearGradient>
<linearGradient id="paint7_linear_2587_28684" x1="365.229" y1="141.324" x2="392.952" y2="158.242" gradientUnits="userSpaceOnUse">
<stop stop-color="#1C313F"/>
<stop offset="1" stop-color="white"/>
</linearGradient>
<clipPath id="clip0_2587_28684">
<rect width="112" height="112" fill="white" transform="translate(343 101.5)"/>
</clipPath>
</defs>
</svg>
