<svg width="950" height="632" viewBox="0 0 950 632" fill="none" xmlns="http://www.w3.org/2000/svg">
<rect y="0.5" width="950" height="631" rx="16" fill="#141519"/>
<path d="M428.221 561.548L421.957 579.5H420.109L415.285 565.58L410.485 579.5H408.637L402.349 561.548H404.725L409.597 575.636L414.397 561.548H416.197L421.021 575.636L425.869 561.548H428.221ZM441.602 561.548V563.492H432.698V569.276H440.546V571.172H432.698V577.556H441.602V579.5H430.49V561.548H441.602ZM458.802 561.548V563.492H452.13V579.5H449.946V563.492H443.274V561.548H458.802ZM475.063 561.548V579.5H472.879V571.172H463.519V579.5H461.311V561.548H463.519V569.204H472.879V561.548H475.063ZM491.85 561.548C494.97 561.548 497.37 563.396 497.37 566.996C497.37 570.572 494.97 572.42 491.85 572.42H487.026V579.5H484.818V561.548H491.85ZM491.586 563.492H487.002V570.476H491.586C493.506 570.476 495.114 569.348 495.114 566.996C495.114 564.596 493.506 563.492 491.586 563.492ZM505.784 567.116V569.108C503.6 569.108 502.232 570.596 502.232 572.468V579.5H500.168V567.26H502.184V569.108C502.616 568.1 503.768 567.116 505.784 567.116ZM509.24 561.476C509.984 561.476 510.608 562.076 510.608 562.844C510.608 563.588 509.984 564.188 509.24 564.188C508.472 564.188 507.872 563.588 507.872 562.844C507.872 562.076 508.496 561.476 509.24 561.476ZM510.248 567.26V579.5H508.184V567.26H510.248ZM519.509 567.044C522.389 567.044 524.645 568.772 525.005 571.628L522.989 571.796C522.773 569.948 521.357 568.82 519.509 568.82C517.229 568.82 515.597 570.476 515.597 573.38C515.597 576.308 517.277 577.94 519.509 577.94C521.429 577.94 522.725 576.884 523.013 575.156L525.029 575.348C524.573 578.06 522.461 579.74 519.509 579.74C516.077 579.74 513.485 577.412 513.485 573.38C513.485 569.348 516.053 567.044 519.509 567.044ZM538.86 573.044V574.172H529.404C529.524 576.524 531.084 577.94 533.244 577.94C535.044 577.94 536.268 577.124 536.676 575.756L538.74 575.876C538.236 578.084 536.124 579.74 533.292 579.74C529.788 579.74 527.22 577.364 527.22 573.38C527.22 569.396 529.764 567.044 533.244 567.044C536.748 567.044 538.86 569.42 538.86 573.044ZM533.22 568.844C531.108 568.844 529.548 570.116 529.404 572.492H536.796C536.748 570.356 535.548 568.844 533.22 568.844Z" fill="#FAFBFB"/>
<path d="M450.487 513.532V525.5H449.047V515.5L446.935 517.116L446.215 515.98L449.415 513.532H450.487ZM453.514 523.756C454.042 523.756 454.474 524.188 454.474 524.716C454.474 525.228 454.042 525.66 453.514 525.66C453.002 525.66 452.586 525.228 452.586 524.716C452.586 524.188 453.002 523.756 453.514 523.756ZM460.253 513.372C462.845 513.372 464.541 515.564 464.541 519.516C464.541 523.468 462.845 525.66 460.253 525.66C457.629 525.66 455.933 523.468 455.933 519.516C455.933 515.564 457.629 513.372 460.253 513.372ZM460.237 514.684C458.397 514.684 457.421 516.348 457.421 519.516C457.421 522.684 458.397 524.348 460.237 524.348C462.061 524.348 463.069 522.684 463.069 519.516C463.069 516.348 462.061 514.684 460.237 514.684ZM470.456 513.372C473.048 513.372 474.744 515.564 474.744 519.516C474.744 523.468 473.048 525.66 470.456 525.66C467.832 525.66 466.136 523.468 466.136 519.516C466.136 515.564 467.832 513.372 470.456 513.372ZM470.44 514.684C468.6 514.684 467.624 516.348 467.624 519.516C467.624 522.684 468.6 524.348 470.44 524.348C472.264 524.348 473.272 522.684 473.272 519.516C473.272 516.348 472.264 514.684 470.44 514.684ZM480.659 513.372C483.251 513.372 484.947 515.564 484.947 519.516C484.947 523.468 483.251 525.66 480.659 525.66C478.035 525.66 476.339 523.468 476.339 519.516C476.339 515.564 478.035 513.372 480.659 513.372ZM480.643 514.684C478.803 514.684 477.827 516.348 477.827 519.516C477.827 522.684 478.803 524.348 480.643 524.348C482.467 524.348 483.475 522.684 483.475 519.516C483.475 516.348 482.467 514.684 480.643 514.684ZM490.862 513.372C493.454 513.372 495.15 515.564 495.15 519.516C495.15 523.468 493.454 525.66 490.862 525.66C488.238 525.66 486.542 523.468 486.542 519.516C486.542 515.564 488.238 513.372 490.862 513.372ZM490.846 514.684C489.006 514.684 488.03 516.348 488.03 519.516C488.03 522.684 489.006 524.348 490.846 524.348C492.67 524.348 493.678 522.684 493.678 519.516C493.678 516.348 492.67 514.684 490.846 514.684Z" fill="#FAFBFB"/>
<path d="M663.659 513.532V525.5H662.219V515.5L660.107 517.116L659.387 515.98L662.587 513.532H663.659ZM666.686 523.756C667.214 523.756 667.646 524.188 667.646 524.716C667.646 525.228 667.214 525.66 666.686 525.66C666.174 525.66 665.758 525.228 665.758 524.716C665.758 524.188 666.174 523.756 666.686 523.756ZM673.425 513.372C676.017 513.372 677.713 515.564 677.713 519.516C677.713 523.468 676.017 525.66 673.425 525.66C670.801 525.66 669.105 523.468 669.105 519.516C669.105 515.564 670.801 513.372 673.425 513.372ZM673.409 514.684C671.569 514.684 670.593 516.348 670.593 519.516C670.593 522.684 671.569 524.348 673.409 524.348C675.233 524.348 676.241 522.684 676.241 519.516C676.241 516.348 675.233 514.684 673.409 514.684ZM683.628 513.372C686.22 513.372 687.916 515.564 687.916 519.516C687.916 523.468 686.22 525.66 683.628 525.66C681.004 525.66 679.308 523.468 679.308 519.516C679.308 515.564 681.004 513.372 683.628 513.372ZM683.612 514.684C681.772 514.684 680.796 516.348 680.796 519.516C680.796 522.684 681.772 524.348 683.612 524.348C685.436 524.348 686.444 522.684 686.444 519.516C686.444 516.348 685.436 514.684 683.612 514.684ZM693.831 513.372C696.423 513.372 698.119 515.564 698.119 519.516C698.119 523.468 696.423 525.66 693.831 525.66C691.207 525.66 689.511 523.468 689.511 519.516C689.511 515.564 691.207 513.372 693.831 513.372ZM693.815 514.684C691.975 514.684 690.999 516.348 690.999 519.516C690.999 522.684 691.975 524.348 693.815 524.348C695.639 524.348 696.647 522.684 696.647 519.516C696.647 516.348 695.639 514.684 693.815 514.684ZM703.346 513.532V525.5H701.906V515.5L699.794 517.116L699.074 515.98L702.274 513.532H703.346Z" fill="#FAFBFB"/>
<path d="M239.737 513.372C242.329 513.372 244.025 515.564 244.025 519.516C244.025 523.468 242.329 525.66 239.737 525.66C237.113 525.66 235.417 523.468 235.417 519.516C235.417 515.564 237.113 513.372 239.737 513.372ZM239.721 514.684C237.881 514.684 236.905 516.348 236.905 519.516C236.905 522.684 237.881 524.348 239.721 524.348C241.545 524.348 242.553 522.684 242.553 519.516C242.553 516.348 241.545 514.684 239.721 514.684ZM246.342 523.756C246.87 523.756 247.302 524.188 247.302 524.716C247.302 525.228 246.87 525.66 246.342 525.66C245.83 525.66 245.414 525.228 245.414 524.716C245.414 524.188 245.83 523.756 246.342 523.756ZM252.635 513.372C254.939 513.372 256.651 514.892 256.651 517.26C256.651 518.252 256.347 519.052 255.835 519.74L251.531 525.5H249.803L253.035 521.164C252.907 521.18 252.779 521.18 252.635 521.18C250.363 521.18 248.635 519.628 248.635 517.26C248.635 514.892 250.363 513.372 252.635 513.372ZM252.635 519.9C253.483 519.9 254.187 519.596 254.651 519.004C254.987 518.572 255.179 518.012 255.179 517.308C255.179 515.692 254.107 514.684 252.635 514.684C251.195 514.684 250.107 515.692 250.107 517.308C250.107 518.924 251.195 519.9 252.635 519.9ZM262.01 513.372C264.314 513.372 266.026 514.892 266.026 517.26C266.026 518.252 265.722 519.052 265.21 519.74L260.906 525.5H259.178L262.41 521.164C262.282 521.18 262.154 521.18 262.01 521.18C259.738 521.18 258.01 519.628 258.01 517.26C258.01 514.892 259.738 513.372 262.01 513.372ZM262.01 519.9C262.858 519.9 263.562 519.596 264.026 519.004C264.362 518.572 264.554 518.012 264.554 517.308C264.554 515.692 263.482 514.684 262.01 514.684C260.57 514.684 259.482 515.692 259.482 517.308C259.482 518.924 260.57 519.9 262.01 519.9ZM271.385 513.372C273.689 513.372 275.401 514.892 275.401 517.26C275.401 518.252 275.097 519.052 274.585 519.74L270.281 525.5H268.553L271.785 521.164C271.657 521.18 271.529 521.18 271.385 521.18C269.113 521.18 267.385 519.628 267.385 517.26C267.385 514.892 269.113 513.372 271.385 513.372ZM271.385 519.9C272.233 519.9 272.937 519.596 273.401 519.004C273.737 518.572 273.929 518.012 273.929 517.308C273.929 515.692 272.857 514.684 271.385 514.684C269.945 514.684 268.857 515.692 268.857 517.308C268.857 518.924 269.945 519.9 271.385 519.9ZM280.76 513.372C283.064 513.372 284.776 514.892 284.776 517.26C284.776 518.252 284.472 519.052 283.96 519.74L279.656 525.5H277.928L281.16 521.164C281.032 521.18 280.904 521.18 280.76 521.18C278.488 521.18 276.76 519.628 276.76 517.26C276.76 514.892 278.488 513.372 280.76 513.372ZM280.76 519.9C281.608 519.9 282.312 519.596 282.776 519.004C283.112 518.572 283.304 518.012 283.304 517.308C283.304 515.692 282.232 514.684 280.76 514.684C279.32 514.684 278.232 515.692 278.232 517.308C278.232 518.924 279.32 519.9 280.76 519.9Z" fill="#FAFBFB"/>
<path d="M784.854 493.854C785.049 493.658 785.049 493.342 784.854 493.146L781.672 489.964C781.476 489.769 781.16 489.769 780.964 489.964C780.769 490.16 780.769 490.476 780.964 490.672L783.793 493.5L780.964 496.328C780.769 496.524 780.769 496.84 780.964 497.036C781.16 497.231 781.476 497.231 781.672 497.036L784.854 493.854ZM180.5 494L784.5 494V493L180.5 493V494Z" fill="#B5BECA"/>
<path d="M181.354 199.646C181.158 199.451 180.842 199.451 180.646 199.646L177.464 202.828C177.269 203.024 177.269 203.34 177.464 203.536C177.66 203.731 177.976 203.731 178.172 203.536L181 200.707L183.828 203.536C184.024 203.731 184.34 203.731 184.536 203.536C184.731 203.34 184.731 203.024 184.536 202.828L181.354 199.646ZM181.5 494L181.5 200L180.5 200L180.5 494L181.5 494Z" fill="#B5BECA"/>
<path d="M682 497L682 490.5" stroke="#B5BECA"/>
<path d="M471 497L471 490.5" stroke="#B5BECA"/>
<path d="M261 497L261 490.5" stroke="#B5BECA"/>
<path d="M474 221.5H679V490.5H474V221.5Z" fill="url(#paint0_linear_2544_28690)" fill-opacity="0.6"/>
<g clip-path="url(#clip0_2544_28690)">
<path d="M571.634 358.607L570.641 357.751L570.849 356.834L572.135 351.841L576 345.586L577.791 346.56L576 349.234L571.504 356.51L576.696 356.391L578.626 357.75L579.469 358.607L581.107 359.973L575.9 367.126L574.232 365.975L576 363.607V361.774L571.971 360.613L571.252 359.929L571.634 358.607Z" fill="#183240"/>
<path d="M575.999 372.178C584.796 372.178 591.928 365.046 591.928 356.249C591.928 347.452 584.796 340.32 575.999 340.32C567.202 340.32 560.07 347.452 560.07 356.249C560.07 365.046 567.202 372.178 575.999 372.178Z" fill="url(#paint1_linear_2544_28690)"/>
<path opacity="0.2" d="M585.955 366.142C591.417 360.643 591.388 351.757 585.889 346.296C580.39 340.834 571.505 340.863 566.043 346.362L585.955 366.142Z" fill="white"/>
<path d="M576.761 362.586C576.511 362.616 576.258 362.633 576.001 362.633C572.532 362.633 569.71 359.811 569.71 356.343C569.71 353.568 571.516 351.209 574.015 350.376L575.857 347.391C570.986 347.468 567.047 351.454 567.047 356.343C567.047 360.891 570.453 364.656 574.849 365.224L576.762 362.586L576.761 362.586Z" fill="white"/>
<path d="M569.71 356.343C569.71 353.568 571.516 351.209 574.015 350.376L575.857 347.391C570.986 347.468 567.047 351.454 567.047 356.343H569.711L569.71 356.343Z" fill="url(#paint2_linear_2544_28690)"/>
<path d="M577.093 347.453L575.477 350.075C575.65 350.06 575.824 350.051 576.001 350.051C579.469 350.051 582.291 352.873 582.291 356.341C582.291 358.987 580.648 361.256 578.33 362.183L576.072 365.295C580.976 365.257 584.955 361.255 584.955 356.341C584.955 351.773 581.517 347.994 577.093 347.453Z" fill="white"/>
<path d="M582.29 356.344C582.29 358.99 580.647 361.258 578.328 362.186L576.07 365.297C580.975 365.259 584.954 361.257 584.954 356.344H582.29Z" fill="url(#paint3_linear_2544_28690)"/>
<path d="M571.734 357.752L576 360.21L580.269 357.752L576 363.616L571.734 357.752ZM571.504 356.518L576.001 349.242L580.498 356.518L576.001 359.11L571.505 356.518H571.504Z" fill="white"/>
<path d="M576.187 412.314C607.012 412.211 631.916 387.139 631.813 356.314C631.71 325.489 606.638 300.585 575.813 300.688C544.988 300.791 520.084 325.863 520.187 356.688C520.29 387.513 545.362 412.417 576.187 412.314Z" fill="url(#paint4_linear_2544_28690)"/>
<path opacity="0.2" d="M610.887 391.16C630.024 371.895 629.928 340.746 610.664 321.609C591.399 302.472 560.25 302.568 541.113 321.833L610.887 391.16Z" fill="white"/>
<path d="M573.722 334.457C574.471 334.381 575.231 334.342 576.001 334.342C588.234 334.342 598.152 344.259 598.152 356.493C598.152 366.033 592.121 374.164 583.664 377.282L576.148 387.852C593.4 387.773 607.361 373.763 607.361 356.493C607.361 340.276 595.051 326.933 579.265 325.301L573.722 334.457Z" fill="white"/>
<path d="M575.289 325.141C558.298 325.519 544.641 339.411 544.641 356.493C544.641 372.474 556.594 385.662 572.048 387.606L578.521 378.502C577.694 378.596 576.853 378.644 576.001 378.644C563.767 378.644 553.85 368.726 553.85 356.493C553.85 346.689 560.218 338.373 569.044 335.456L575.289 325.141Z" fill="white"/>
<path d="M583.664 377.282C592.121 374.163 598.152 366.032 598.152 356.492H607.361C607.361 373.763 593.4 387.772 576.148 387.852L583.664 377.282Z" fill="url(#paint5_linear_2544_28690)"/>
<path d="M575.289 325.141C558.298 325.519 544.641 339.411 544.641 356.493C544.641 356.493 553.85 356.625 553.85 356.493C553.85 346.689 560.218 338.373 569.044 335.456L575.289 325.141Z" fill="url(#paint6_linear_2544_28690)"/>
<path d="M575.945 382.127L591.691 359.953L575.945 369.246L560.207 359.953L575.945 382.127Z" fill="white"/>
<path opacity="0.1" d="M575.941 382.127L591.687 359.953L575.941 369.246V382.127Z" fill="#4C52F9"/>
<path d="M575.895 366.306L591.719 356.996L575.895 330.859L560.07 356.996L575.895 366.306Z" fill="url(#paint7_linear_2544_28690)"/>
<path d="M575.895 366.306L591.719 356.996L575.895 330.859L560.07 356.996L575.895 366.306Z" fill="white"/>
<path opacity="0.1" d="M575.895 366.305L560.07 356.996L575.895 330.859L575.895 366.305Z" fill="#4C52F9"/>
<path opacity="0.1" d="M575.895 366.306V349.578L560.07 356.997L575.895 366.306Z" fill="#4C52F9"/>
<path opacity="0.1" d="M575.894 366.306V349.578L591.719 356.997L575.894 366.306Z" fill="#4C52F9"/>
</g>
<path d="M87.389 81.072C92.069 81.072 95.669 83.844 95.669 89.244C95.669 94.608 92.069 97.38 87.389 97.38H80.153V108H76.841V81.072H87.389ZM86.993 83.988H80.117V94.464H86.993C89.873 94.464 92.285 92.772 92.285 89.244C92.285 85.644 89.873 83.988 86.993 83.988ZM108.29 89.424V92.412C105.014 92.412 102.962 94.644 102.962 97.452V108H99.8658V89.64H102.89V92.412C103.538 90.9 105.266 89.424 108.29 89.424ZM119.921 89.316C125.249 89.316 129.353 92.988 129.353 98.82C129.353 104.652 125.249 108.36 119.921 108.36C114.593 108.36 110.489 104.652 110.489 98.82C110.489 92.988 114.593 89.316 119.921 89.316ZM119.921 92.016C116.357 92.016 113.621 94.536 113.621 98.82C113.621 103.104 116.357 105.66 119.921 105.66C123.485 105.66 126.221 103.104 126.221 98.82C126.221 94.536 123.485 92.016 119.921 92.016ZM141.269 105.444C142.025 105.444 142.637 105.336 143.069 105.264V108.036C142.457 108.144 141.737 108.252 140.585 108.252C137.237 108.252 134.897 106.524 134.933 102.492L134.969 92.34H131.549V89.64H134.969L135.005 83.304H138.137L138.101 89.64H143.033V92.34H138.101L138.029 101.88C138.029 104.544 139.469 105.444 141.269 105.444ZM155.043 89.316C160.371 89.316 164.475 92.988 164.475 98.82C164.475 104.652 160.371 108.36 155.043 108.36C149.715 108.36 145.611 104.652 145.611 98.82C145.611 92.988 149.715 89.316 155.043 89.316ZM155.043 92.016C151.479 92.016 148.743 94.536 148.743 98.82C148.743 103.104 151.479 105.66 155.043 105.66C158.607 105.66 161.343 103.104 161.343 98.82C161.343 94.536 158.607 92.016 155.043 92.016ZM177.147 89.316C181.467 89.316 184.851 91.908 185.391 96.192L182.367 96.444C182.043 93.672 179.919 91.98 177.147 91.98C173.727 91.98 171.279 94.464 171.279 98.82C171.279 103.212 173.799 105.66 177.147 105.66C180.027 105.66 181.971 104.076 182.403 101.484L185.427 101.772C184.743 105.84 181.575 108.36 177.147 108.36C171.999 108.36 168.111 104.868 168.111 98.82C168.111 92.772 171.963 89.316 177.147 89.316ZM198.144 89.316C203.472 89.316 207.576 92.988 207.576 98.82C207.576 104.652 203.472 108.36 198.144 108.36C192.816 108.36 188.712 104.652 188.712 98.82C188.712 92.988 192.816 89.316 198.144 89.316ZM198.144 92.016C194.58 92.016 191.844 94.536 191.844 98.82C191.844 103.104 194.58 105.66 198.144 105.66C201.708 105.66 204.444 103.104 204.444 98.82C204.444 94.536 201.708 92.016 198.144 92.016ZM215.462 80.028V108H212.366V80.028H215.462ZM231.298 97.128V100.044H220.03V97.128H231.298ZM244.058 89.316C249.386 89.316 253.49 92.988 253.49 98.82C253.49 104.652 249.386 108.36 244.058 108.36C238.73 108.36 234.626 104.652 234.626 98.82C234.626 92.988 238.73 89.316 244.058 89.316ZM244.058 92.016C240.494 92.016 237.758 94.536 237.758 98.82C237.758 103.104 240.494 105.66 244.058 105.66C247.622 105.66 250.358 103.104 250.358 98.82C250.358 94.536 247.622 92.016 244.058 92.016ZM283.886 89.64L276.902 108H274.418L269.486 94.86L264.554 108H262.07L255.086 89.64H258.47L263.402 102.96L268.37 89.64H270.566L275.57 102.96L280.538 89.64H283.886ZM295.784 89.316C299.924 89.316 302.912 92.232 302.912 96.84V108H299.78V97.236C299.78 94.176 297.908 92.196 295.136 92.196C292.22 92.196 290.204 94.5 290.204 97.272V108H287.108V89.64H290.06V92.376C290.96 90.72 292.868 89.316 295.784 89.316ZM325.035 98.316V100.008H310.851C311.031 103.536 313.371 105.66 316.611 105.66C319.311 105.66 321.147 104.436 321.759 102.384L324.855 102.564C324.099 105.876 320.931 108.36 316.683 108.36C311.427 108.36 307.575 104.796 307.575 98.82C307.575 92.844 311.391 89.316 316.611 89.316C321.867 89.316 325.035 92.88 325.035 98.316ZM316.575 92.016C313.407 92.016 311.067 93.924 310.851 97.488H321.939C321.867 94.284 320.067 92.016 316.575 92.016ZM346.922 80.028V108H344.006V105.012C342.962 106.92 340.622 108.36 337.49 108.36C332.45 108.36 328.634 104.76 328.634 98.856C328.634 92.916 332.45 89.316 337.49 89.316C340.55 89.316 342.818 90.648 343.826 92.412V80.028H346.922ZM337.922 92.016C334.43 92.016 331.766 94.428 331.766 98.82C331.766 103.248 334.43 105.66 337.922 105.66C341.306 105.66 343.826 103.536 343.826 99.36V98.28C343.826 94.14 341.306 92.016 337.922 92.016ZM364.454 80.028V108H361.358V80.028H364.454ZM372.118 80.964C373.234 80.964 374.17 81.864 374.17 83.016C374.17 84.132 373.234 85.032 372.118 85.032C370.966 85.032 370.066 84.132 370.066 83.016C370.066 81.864 371.002 80.964 372.118 80.964ZM373.63 89.64V108H370.534V89.64H373.63ZM387.342 89.316C390.474 89.316 392.814 90.756 393.858 92.664V89.64H396.774V117.18H393.678V105.264C392.67 107.028 390.402 108.36 387.342 108.36C382.302 108.36 378.486 104.76 378.486 98.82C378.486 92.916 382.302 89.316 387.342 89.316ZM387.774 92.016C384.282 92.016 381.618 94.428 381.618 98.856C381.618 103.248 384.282 105.66 387.774 105.66C391.158 105.66 393.678 103.536 393.678 99.396V98.316C393.678 94.14 391.158 92.016 387.774 92.016ZM417.854 89.64V108H414.902V105.264C414.218 106.74 412.454 108.36 409.394 108.36C405.29 108.36 402.698 105.372 402.698 100.98V89.64H405.794V100.548C405.794 103.536 407.342 105.444 410.114 105.444C413.03 105.444 414.758 103.068 414.758 100.368V89.64H417.854ZM425.485 80.964C426.601 80.964 427.537 81.864 427.537 83.016C427.537 84.132 426.601 85.032 425.485 85.032C424.333 85.032 423.433 84.132 423.433 83.016C423.433 81.864 424.369 80.964 425.485 80.964ZM426.997 89.64V108H423.901V89.64H426.997ZM450.141 80.028V108H447.225V105.012C446.181 106.92 443.841 108.36 440.709 108.36C435.669 108.36 431.853 104.76 431.853 98.856C431.853 92.916 435.669 89.316 440.709 89.316C443.769 89.316 446.037 90.648 447.045 92.412V80.028H450.141ZM441.141 92.016C437.649 92.016 434.985 94.428 434.985 98.82C434.985 103.248 437.649 105.66 441.141 105.66C444.525 105.66 447.045 103.536 447.045 99.36V98.28C447.045 94.14 444.525 92.016 441.141 92.016ZM457.794 80.964C458.91 80.964 459.846 81.864 459.846 83.016C459.846 84.132 458.91 85.032 457.794 85.032C456.642 85.032 455.742 84.132 455.742 83.016C455.742 81.864 456.678 80.964 457.794 80.964ZM459.306 89.64V108H456.21V89.64H459.306ZM472.441 105.444C473.197 105.444 473.809 105.336 474.241 105.264V108.036C473.629 108.144 472.909 108.252 471.757 108.252C468.409 108.252 466.069 106.524 466.105 102.492L466.141 92.34H462.721V89.64H466.141L466.177 83.304H469.309L469.273 89.64H474.205V92.34H469.273L469.201 101.88C469.201 104.544 470.641 105.444 472.441 105.444ZM493.414 89.64L481.822 117.18H478.402L482.758 106.992L475.45 89.64H478.906L484.45 103.5L489.958 89.64H493.414ZM521.489 98.316V100.008H507.305C507.485 103.536 509.825 105.66 513.065 105.66C515.765 105.66 517.601 104.436 518.213 102.384L521.309 102.564C520.553 105.876 517.385 108.36 513.137 108.36C507.881 108.36 504.029 104.796 504.029 98.82C504.029 92.844 507.845 89.316 513.065 89.316C518.321 89.316 521.489 92.88 521.489 98.316ZM513.029 92.016C509.861 92.016 507.521 93.924 507.305 97.488H518.393C518.321 94.284 516.521 92.016 513.029 92.016ZM534.987 89.316C539.127 89.316 542.115 92.232 542.115 96.84V108H538.983V97.236C538.983 94.176 537.111 92.196 534.339 92.196C531.423 92.196 529.407 94.5 529.407 97.272V108H526.311V89.64H529.263V92.376C530.163 90.72 532.071 89.316 534.987 89.316ZM553.655 89.352C557.759 89.316 559.991 91.692 560.387 94.86L557.291 95.04C557.075 93.204 555.887 91.98 553.547 92.016C551.207 91.98 550.055 93.06 550.055 94.68C550.055 96.624 551.783 96.768 554.411 97.38C558.299 98.316 560.783 99.396 560.783 102.672C560.783 106.308 558.083 108.36 553.835 108.36C549.695 108.36 547.031 106.308 546.563 102.78L549.659 102.564C549.947 104.58 551.459 105.66 553.907 105.66C556.103 105.66 557.687 104.76 557.687 102.924C557.687 101.052 556.463 100.62 553.151 99.828C549.587 99 546.923 98.316 546.923 94.716C546.923 91.512 549.335 89.316 553.655 89.352ZM580.768 89.64V108H577.816V105.264C577.132 106.74 575.368 108.36 572.308 108.36C568.204 108.36 565.612 105.372 565.612 100.98V89.64H568.708V100.548C568.708 103.536 570.256 105.444 573.028 105.444C575.944 105.444 577.672 103.068 577.672 100.368V89.64H580.768ZM595.239 89.424V92.412C591.963 92.412 589.911 94.644 589.911 97.452V108H586.815V89.64H589.839V92.412C590.487 90.9 592.215 89.424 595.239 89.424ZM600.422 80.964C601.538 80.964 602.474 81.864 602.474 83.016C602.474 84.132 601.538 85.032 600.422 85.032C599.27 85.032 598.37 84.132 598.37 83.016C598.37 81.864 599.306 80.964 600.422 80.964ZM601.934 89.64V108H598.838V89.64H601.934ZM616.69 89.316C620.83 89.316 623.818 92.232 623.818 96.84V108H620.686V97.236C620.686 94.176 618.814 92.196 616.042 92.196C613.126 92.196 611.11 94.5 611.11 97.272V108H608.014V89.64H610.966V92.376C611.866 90.72 613.774 89.316 616.69 89.316ZM637.338 89.316C640.47 89.316 642.81 90.756 643.854 92.664V89.64H646.77V109.044C646.77 114.3 643.242 117.504 637.986 117.504C632.838 117.504 629.814 114.804 629.094 110.988L632.19 110.88C632.622 113.364 634.962 114.876 637.878 114.876C641.298 114.876 643.674 112.896 643.674 109.26V105.264C642.666 107.028 640.398 108.36 637.338 108.36C632.298 108.36 628.482 104.76 628.482 98.82C628.482 92.916 632.298 89.316 637.338 89.316ZM637.77 92.016C634.278 92.016 631.614 94.428 631.614 98.856C631.614 103.248 634.278 105.66 637.77 105.66C641.154 105.66 643.674 103.536 643.674 99.396V98.316C643.674 94.14 641.154 92.016 637.77 92.016ZM667.402 89.316C671.938 89.316 674.422 91.908 674.422 96.444V108H671.29V105.84C669.994 107.424 668.086 108.36 665.818 108.36C662.254 108.36 659.806 106.488 659.806 103.14C659.806 99.324 662.686 97.884 666.538 97.668L671.29 97.38V96.516C671.29 93.744 670.066 92.052 667.438 92.052C664.702 92.052 663.442 93.924 663.442 95.868L660.31 95.724C660.31 92.556 662.938 89.316 667.402 89.316ZM671.326 99.864L666.934 100.152C664.558 100.296 662.938 101.052 662.938 103.068C662.938 105.012 664.342 105.696 666.286 105.696C669.058 105.696 671.326 104.292 671.326 100.62V99.864ZM695.646 81.072V108H692.406V85.5L687.654 89.136L686.034 86.58L693.234 81.072H695.646ZM702.277 89.28C703.465 89.28 704.437 90.252 704.437 91.44C704.437 92.592 703.465 93.564 702.277 93.564C701.125 93.564 700.189 92.592 700.189 91.44C700.189 90.252 701.125 89.28 702.277 89.28ZM702.277 104.076C703.465 104.076 704.437 105.048 704.437 106.236C704.437 107.388 703.465 108.36 702.277 108.36C701.125 108.36 700.189 107.388 700.189 106.236C700.189 105.048 701.125 104.076 702.277 104.076ZM716.072 81.072V108H712.832V85.5L708.08 89.136L706.46 86.58L713.66 81.072H716.072ZM747.45 81.072V83.988H734.094V92.664H745.866V95.508H734.094V105.084H747.45V108H730.782V81.072H747.45ZM773.25 81.072V83.988H763.242V108H759.966V83.988H749.958V81.072H773.25ZM797.641 81.072V108H794.365V95.508H780.325V108H777.013V81.072H780.325V92.556H794.365V81.072H797.641ZM821.635 89.316C826.675 89.316 830.491 92.916 830.491 98.82C830.491 104.76 826.675 108.36 821.635 108.36C818.539 108.36 816.307 107.028 815.263 105.264V117.18H812.167V89.64H815.119V92.664C816.163 90.756 818.467 89.316 821.635 89.316ZM821.167 92.016C817.819 92.016 815.299 94.14 815.299 98.316V99.396C815.299 103.536 817.819 105.66 821.167 105.66C824.659 105.66 827.323 103.248 827.323 98.856C827.323 94.428 824.659 92.016 821.167 92.016ZM851.535 98.316V100.008H837.351C837.531 103.536 839.871 105.66 843.111 105.66C845.811 105.66 847.647 104.436 848.259 102.384L851.355 102.564C850.599 105.876 847.431 108.36 843.183 108.36C837.927 108.36 834.075 104.796 834.075 98.82C834.075 92.844 837.891 89.316 843.111 89.316C848.367 89.316 851.535 92.88 851.535 98.316ZM843.075 92.016C839.907 92.016 837.567 93.924 837.351 97.488H848.439C848.367 94.284 846.567 92.016 843.075 92.016ZM863.99 89.316C867.122 89.316 869.462 90.756 870.506 92.664V89.64H873.422V109.044C873.422 114.3 869.894 117.504 864.638 117.504C859.49 117.504 856.466 114.804 855.746 110.988L858.842 110.88C859.274 113.364 861.614 114.876 864.53 114.876C867.95 114.876 870.326 112.896 870.326 109.26V105.264C869.318 107.028 867.05 108.36 863.99 108.36C858.95 108.36 855.134 104.76 855.134 98.82C855.134 92.916 858.95 89.316 863.99 89.316ZM864.422 92.016C860.93 92.016 858.266 94.428 858.266 98.856C858.266 103.248 860.93 105.66 864.422 105.66C867.806 105.66 870.326 103.536 870.326 99.396V98.316C870.326 94.14 867.806 92.016 864.422 92.016Z" fill="#FAFBFB"/>
<defs>
<linearGradient id="paint0_linear_2544_28690" x1="474" y1="356" x2="679" y2="356" gradientUnits="userSpaceOnUse">
<stop stop-color="#1A82FF"/>
<stop offset="0.5" stop-color="#7A26F3"/>
<stop offset="1" stop-color="#D6453B"/>
</linearGradient>
<linearGradient id="paint1_linear_2544_28690" x1="560.07" y1="356.249" x2="591.928" y2="356.249" gradientUnits="userSpaceOnUse">
<stop offset="0.25" stop-color="#1A82FF"/>
<stop offset="0.5" stop-color="#7A26F3"/>
<stop offset="0.74" stop-color="#D6453B"/>
</linearGradient>
<linearGradient id="paint2_linear_2544_28690" x1="581.649" y1="342.97" x2="568.702" y2="354.003" gradientUnits="userSpaceOnUse">
<stop stop-color="#4C52F9" stop-opacity="0.5"/>
<stop offset="1" stop-color="white"/>
</linearGradient>
<linearGradient id="paint3_linear_2544_28690" x1="570.146" y1="367.562" x2="579.994" y2="361.134" gradientUnits="userSpaceOnUse">
<stop stop-color="#4C52F9" stop-opacity="0.5"/>
<stop offset="1" stop-color="white"/>
</linearGradient>
<linearGradient id="paint4_linear_2544_28690" x1="520.187" y1="356.688" x2="631.813" y2="356.314" gradientUnits="userSpaceOnUse">
<stop offset="0.25" stop-color="#1A82FF"/>
<stop offset="0.5" stop-color="#7A26F3"/>
<stop offset="0.74" stop-color="#D6453B"/>
</linearGradient>
<linearGradient id="paint5_linear_2544_28690" x1="555.354" y1="395.785" x2="589.891" y2="373.162" gradientUnits="userSpaceOnUse">
<stop stop-color="#4C52F9" stop-opacity="0.5"/>
<stop offset="1" stop-color="white"/>
</linearGradient>
<linearGradient id="paint6_linear_2544_28690" x1="592.925" y1="310.706" x2="559.88" y2="334.582" gradientUnits="userSpaceOnUse">
<stop stop-color="#4C52F9" stop-opacity="0.5"/>
<stop offset="1" stop-color="white"/>
</linearGradient>
<linearGradient id="paint7_linear_2544_28690" x1="542.229" y1="340.324" x2="569.952" y2="357.242" gradientUnits="userSpaceOnUse">
<stop stop-color="#1C313F"/>
<stop offset="1" stop-color="white"/>
</linearGradient>
<clipPath id="clip0_2544_28690">
<rect width="112" height="112" fill="white" transform="translate(520 300.5)"/>
</clipPath>
</defs>
</svg>
