<svg width="1080" height="682" viewBox="0 0 1080 682" fill="none" xmlns="http://www.w3.org/2000/svg">
<rect width="1080" height="682" rx="16" fill="white"/>
<path d="M480.141 611.22L473.877 629.172H472.029L467.205 615.252L462.405 629.172H460.557L454.269 611.22H456.645L461.517 625.308L466.317 611.22H468.117L472.941 625.308L477.789 611.22H480.141ZM493.522 611.22V613.164H484.618V618.948H492.466V620.844H484.618V627.228H493.522V629.172H482.41V611.22H493.522ZM510.721 611.22V613.164H504.049V629.172H501.865V613.164H495.193V611.22H510.721ZM526.982 611.22V629.172H524.798V620.844H515.438V629.172H513.23V611.22H515.438V618.876H524.798V611.22H526.982ZM543.77 611.22C546.89 611.22 549.29 613.068 549.29 616.668C549.29 620.244 546.89 622.092 543.77 622.092H538.946V629.172H536.738V611.22H543.77ZM543.506 613.164H538.922V620.148H543.506C545.426 620.148 547.034 619.02 547.034 616.668C547.034 614.268 545.426 613.164 543.506 613.164ZM557.704 616.788V618.78C555.52 618.78 554.152 620.268 554.152 622.14V629.172H552.088V616.932H554.104V618.78C554.536 617.772 555.688 616.788 557.704 616.788ZM561.159 611.148C561.903 611.148 562.527 611.748 562.527 612.516C562.527 613.26 561.903 613.86 561.159 613.86C560.391 613.86 559.791 613.26 559.791 612.516C559.791 611.748 560.415 611.148 561.159 611.148ZM562.167 616.932V629.172H560.103V616.932H562.167ZM571.429 616.716C574.309 616.716 576.565 618.444 576.925 621.3L574.909 621.468C574.693 619.62 573.277 618.492 571.429 618.492C569.149 618.492 567.517 620.148 567.517 623.052C567.517 625.98 569.197 627.612 571.429 627.612C573.349 627.612 574.645 626.556 574.933 624.828L576.949 625.02C576.493 627.732 574.381 629.412 571.429 629.412C567.997 629.412 565.405 627.084 565.405 623.052C565.405 619.02 567.973 616.716 571.429 616.716ZM590.779 622.716V623.844H581.323C581.443 626.196 583.003 627.612 585.163 627.612C586.963 627.612 588.187 626.796 588.595 625.428L590.659 625.548C590.155 627.756 588.043 629.412 585.211 629.412C581.707 629.412 579.139 627.036 579.139 623.052C579.139 619.068 581.683 616.716 585.163 616.716C588.667 616.716 590.779 619.092 590.779 622.716ZM585.139 618.516C583.027 618.516 581.467 619.788 581.323 622.164H588.715C588.667 620.028 587.467 618.516 585.139 618.516Z" fill="#141214"/>
<path d="M502.406 538.509V550.477H500.966V540.477L498.854 542.093L498.134 540.957L501.334 538.509H502.406ZM505.433 548.733C505.961 548.733 506.393 549.165 506.393 549.693C506.393 550.205 505.961 550.637 505.433 550.637C504.921 550.637 504.505 550.205 504.505 549.693C504.505 549.165 504.921 548.733 505.433 548.733ZM512.172 538.349C514.764 538.349 516.46 540.541 516.46 544.493C516.46 548.445 514.764 550.637 512.172 550.637C509.548 550.637 507.852 548.445 507.852 544.493C507.852 540.541 509.548 538.349 512.172 538.349ZM512.156 539.661C510.316 539.661 509.34 541.325 509.34 544.493C509.34 547.661 510.316 549.325 512.156 549.325C513.98 549.325 514.988 547.661 514.988 544.493C514.988 541.325 513.98 539.661 512.156 539.661ZM522.375 538.349C524.967 538.349 526.663 540.541 526.663 544.493C526.663 548.445 524.967 550.637 522.375 550.637C519.751 550.637 518.055 548.445 518.055 544.493C518.055 540.541 519.751 538.349 522.375 538.349ZM522.359 539.661C520.519 539.661 519.543 541.325 519.543 544.493C519.543 547.661 520.519 549.325 522.359 549.325C524.183 549.325 525.191 547.661 525.191 544.493C525.191 541.325 524.183 539.661 522.359 539.661ZM532.578 538.349C535.17 538.349 536.866 540.541 536.866 544.493C536.866 548.445 535.17 550.637 532.578 550.637C529.954 550.637 528.258 548.445 528.258 544.493C528.258 540.541 529.954 538.349 532.578 538.349ZM532.562 539.661C530.722 539.661 529.746 541.325 529.746 544.493C529.746 547.661 530.722 549.325 532.562 549.325C534.386 549.325 535.394 547.661 535.394 544.493C535.394 541.325 534.386 539.661 532.562 539.661ZM542.782 538.349C545.374 538.349 547.07 540.541 547.07 544.493C547.07 548.445 545.374 550.637 542.782 550.637C540.158 550.637 538.462 548.445 538.462 544.493C538.462 540.541 540.158 538.349 542.782 538.349ZM542.766 539.661C540.926 539.661 539.95 541.325 539.95 544.493C539.95 547.661 540.926 549.325 542.766 549.325C544.59 549.325 545.598 547.661 545.598 544.493C545.598 541.325 544.59 539.661 542.766 539.661Z" fill="#141214"/>
<path d="M821.93 538.509V550.477H820.49V540.477L818.378 542.093L817.658 540.957L820.858 538.509H821.93ZM824.957 548.733C825.485 548.733 825.917 549.165 825.917 549.693C825.917 550.205 825.485 550.637 824.957 550.637C824.445 550.637 824.029 550.205 824.029 549.693C824.029 549.165 824.445 548.733 824.957 548.733ZM831.696 538.349C834.288 538.349 835.984 540.541 835.984 544.493C835.984 548.445 834.288 550.637 831.696 550.637C829.072 550.637 827.376 548.445 827.376 544.493C827.376 540.541 829.072 538.349 831.696 538.349ZM831.68 539.661C829.84 539.661 828.864 541.325 828.864 544.493C828.864 547.661 829.84 549.325 831.68 549.325C833.504 549.325 834.512 547.661 834.512 544.493C834.512 541.325 833.504 539.661 831.68 539.661ZM841.899 538.349C844.491 538.349 846.187 540.541 846.187 544.493C846.187 548.445 844.491 550.637 841.899 550.637C839.275 550.637 837.579 548.445 837.579 544.493C837.579 540.541 839.275 538.349 841.899 538.349ZM841.883 539.661C840.043 539.661 839.067 541.325 839.067 544.493C839.067 547.661 840.043 549.325 841.883 549.325C843.707 549.325 844.715 547.661 844.715 544.493C844.715 541.325 843.707 539.661 841.883 539.661ZM852.102 538.349C854.694 538.349 856.39 540.541 856.39 544.493C856.39 548.445 854.694 550.637 852.102 550.637C849.478 550.637 847.782 548.445 847.782 544.493C847.782 540.541 849.478 538.349 852.102 538.349ZM852.086 539.661C850.246 539.661 849.27 541.325 849.27 544.493C849.27 547.661 850.246 549.325 852.086 549.325C853.91 549.325 854.918 547.661 854.918 544.493C854.918 541.325 853.91 539.661 852.086 539.661ZM861.617 538.509V550.477H860.177V540.477L858.065 542.093L857.345 540.957L860.545 538.509H861.617Z" fill="#141214"/>
<path d="M185.309 538.349C187.901 538.349 189.597 540.541 189.597 544.493C189.597 548.445 187.901 550.637 185.309 550.637C182.685 550.637 180.989 548.445 180.989 544.493C180.989 540.541 182.685 538.349 185.309 538.349ZM185.293 539.661C183.453 539.661 182.477 541.325 182.477 544.493C182.477 547.661 183.453 549.325 185.293 549.325C187.117 549.325 188.125 547.661 188.125 544.493C188.125 541.325 187.117 539.661 185.293 539.661ZM191.914 548.733C192.442 548.733 192.874 549.165 192.874 549.693C192.874 550.205 192.442 550.637 191.914 550.637C191.402 550.637 190.986 550.205 190.986 549.693C190.986 549.165 191.402 548.733 191.914 548.733ZM198.207 538.349C200.511 538.349 202.223 539.869 202.223 542.237C202.223 543.229 201.919 544.029 201.407 544.717L197.103 550.477H195.375L198.607 546.141C198.479 546.157 198.351 546.157 198.207 546.157C195.935 546.157 194.207 544.605 194.207 542.237C194.207 539.869 195.935 538.349 198.207 538.349ZM198.207 544.877C199.055 544.877 199.759 544.573 200.223 543.981C200.559 543.549 200.751 542.989 200.751 542.285C200.751 540.669 199.679 539.661 198.207 539.661C196.767 539.661 195.679 540.669 195.679 542.285C195.679 543.901 196.767 544.877 198.207 544.877ZM207.582 538.349C209.886 538.349 211.598 539.869 211.598 542.237C211.598 543.229 211.294 544.029 210.782 544.717L206.478 550.477H204.75L207.982 546.141C207.854 546.157 207.726 546.157 207.582 546.157C205.31 546.157 203.582 544.605 203.582 542.237C203.582 539.869 205.31 538.349 207.582 538.349ZM207.582 544.877C208.43 544.877 209.134 544.573 209.598 543.981C209.934 543.549 210.126 542.989 210.126 542.285C210.126 540.669 209.054 539.661 207.582 539.661C206.142 539.661 205.054 540.669 205.054 542.285C205.054 543.901 206.142 544.877 207.582 544.877ZM216.957 538.349C219.261 538.349 220.973 539.869 220.973 542.237C220.973 543.229 220.669 544.029 220.157 544.717L215.853 550.477H214.125L217.357 546.141C217.229 546.157 217.101 546.157 216.957 546.157C214.685 546.157 212.957 544.605 212.957 542.237C212.957 539.869 214.685 538.349 216.957 538.349ZM216.957 544.877C217.805 544.877 218.509 544.573 218.973 543.981C219.309 543.549 219.501 542.989 219.501 542.285C219.501 540.669 218.429 539.661 216.957 539.661C215.517 539.661 214.429 540.669 214.429 542.285C214.429 543.901 215.517 544.877 216.957 544.877ZM226.332 538.349C228.636 538.349 230.348 539.869 230.348 542.237C230.348 543.229 230.044 544.029 229.532 544.717L225.228 550.477H223.5L226.732 546.141C226.604 546.157 226.476 546.157 226.332 546.157C224.06 546.157 222.332 544.605 222.332 542.237C222.332 539.869 224.06 538.349 226.332 538.349ZM226.332 544.877C227.18 544.877 227.884 544.573 228.348 543.981C228.684 543.549 228.876 542.989 228.876 542.285C228.876 540.669 227.804 539.661 226.332 539.661C224.892 539.661 223.804 540.669 223.804 542.285C223.804 543.901 224.892 544.877 226.332 544.877Z" fill="#141214"/>
<path d="M994.784 512.783C994.979 512.588 994.979 512.271 994.784 512.076L991.602 508.894C991.406 508.699 991.09 508.699 990.894 508.894C990.699 509.089 990.699 509.406 990.894 509.601L993.723 512.43L990.894 515.258C990.699 515.453 990.699 515.77 990.894 515.965C991.09 516.16 991.406 516.16 991.602 515.965L994.784 512.783ZM86 512.93L994.43 512.93V511.93L86 511.93V512.93Z" fill="#B5BECA"/>
<path d="M87.1074 70.6473C86.9122 70.452 86.5956 70.452 86.4003 70.6473L83.2184 73.8293C83.0231 74.0245 83.0231 74.3411 83.2184 74.5364C83.4136 74.7316 83.7302 74.7316 83.9255 74.5364L86.7539 71.7079L89.5823 74.5364C89.7776 74.7316 90.0942 74.7316 90.2894 74.5364C90.4847 74.3411 90.4847 74.0245 90.2894 73.8293L87.1074 70.6473ZM87.2539 513.187L87.2539 71.0008L86.2539 71.0008L86.2539 513.188L87.2539 513.187Z" fill="#B5BECA"/>
<path d="M840.266 517.695L840.266 507.919" stroke="#B5BECA"/>
<path d="M522.918 517.695L522.918 507.919" stroke="#B5BECA"/>
<path d="M207.074 517.695L207.074 507.919" stroke="#B5BECA"/>
<path d="M527.434 103.328H835.758V507.914H527.434V103.328Z" fill="url(#paint0_linear_2813_28970)" fill-opacity="0.6"/>
<g clip-path="url(#clip0_2813_28970)">
<path d="M674.272 309.561L672.777 308.273L673.091 306.894L675.025 299.384L680.838 289.977L683.531 291.441L680.838 295.463L674.076 306.407L681.884 306.227L684.788 308.272L686.056 309.561L688.519 311.615L680.687 322.374L678.179 320.643L680.838 317.081V314.324L674.778 312.578L673.696 311.549L674.272 309.561Z" fill="#183240"/>
<path d="M680.84 329.962C694.072 329.962 704.798 319.236 704.798 306.005C704.798 292.773 694.072 282.047 680.84 282.047C667.609 282.047 656.883 292.773 656.883 306.005C656.883 319.236 667.609 329.962 680.84 329.962Z" fill="url(#paint1_linear_2813_28970)"/>
<path opacity="0.2" d="M695.812 320.879C704.026 312.609 703.983 299.245 695.712 291.03C687.441 282.816 674.078 282.86 665.863 291.131L695.812 320.879Z" fill="white"/>
<path d="M681.981 315.533C681.606 315.579 681.224 315.605 680.838 315.605C675.621 315.605 671.377 311.36 671.377 306.144C671.377 301.971 674.093 298.423 677.851 297.17L680.621 292.68C673.295 292.796 667.371 298.79 667.371 306.145C667.371 312.984 672.494 318.648 679.106 319.502L681.983 315.535L681.981 315.533Z" fill="white"/>
<path d="M671.377 306.144C671.377 301.971 674.093 298.423 677.851 297.17L680.621 292.68C673.295 292.796 667.371 298.79 667.371 306.145H671.378L671.377 306.144Z" fill="url(#paint2_linear_2813_28970)"/>
<path d="M682.478 292.773L680.047 296.716C680.307 296.694 680.569 296.68 680.835 296.68C686.052 296.68 690.296 300.925 690.296 306.141C690.296 310.121 687.825 313.533 684.338 314.928L680.942 319.608C688.319 319.551 694.303 313.532 694.303 306.141C694.303 299.271 689.132 293.587 682.478 292.773Z" fill="white"/>
<path d="M690.299 306.141C690.299 310.12 687.828 313.532 684.341 314.927L680.945 319.607C688.322 319.55 694.306 313.531 694.306 306.141H690.299Z" fill="url(#paint3_linear_2813_28970)"/>
<path d="M674.424 308.26L680.84 311.957L687.261 308.26L680.84 317.079L674.424 308.26ZM674.078 306.404L680.842 295.461L687.605 306.404L680.842 310.303L674.079 306.404H674.078Z" fill="white"/>
<path d="M681.12 390.327C727.481 390.172 764.938 352.462 764.783 306.101C764.627 259.739 726.918 222.282 680.557 222.437C634.196 222.593 596.739 260.302 596.895 306.663C597.05 353.025 634.759 390.482 681.12 390.327Z" fill="url(#paint4_linear_2813_28970)"/>
<path opacity="0.2" d="M733.309 358.52C762.091 329.545 761.947 282.695 732.973 253.913C703.998 225.131 657.149 225.275 628.367 254.249L733.309 358.52Z" fill="white"/>
<path d="M677.41 273.232C678.537 273.116 679.681 273.057 680.838 273.057C699.238 273.057 714.154 287.973 714.154 306.373C714.154 320.722 705.084 332.952 692.364 337.642L681.06 353.539C707.007 353.42 728.004 332.349 728.004 306.373C728.004 281.982 709.49 261.915 685.748 259.459L677.41 273.232Z" fill="white"/>
<path d="M679.768 259.219C654.213 259.788 633.672 280.682 633.672 306.373C633.672 330.409 651.65 350.246 674.893 353.169L684.629 339.476C683.385 339.617 682.12 339.689 680.838 339.689C662.438 339.689 647.522 324.773 647.522 306.373C647.522 291.629 657.101 279.121 670.374 274.734L679.768 259.219Z" fill="white"/>
<path d="M692.367 337.636C705.086 332.945 714.156 320.715 714.156 306.367H728.007C728.007 332.343 707.01 353.414 681.062 353.533L692.367 337.636Z" fill="url(#paint5_linear_2813_28970)"/>
<path d="M679.768 259.219C654.213 259.788 633.672 280.682 633.672 306.373C633.672 306.373 647.522 306.572 647.522 306.373C647.522 291.629 657.101 279.121 670.374 274.734L679.768 259.219Z" fill="url(#paint6_linear_2813_28970)"/>
<path d="M680.752 344.929L704.434 311.578L680.752 325.554L657.082 311.578L680.752 344.929Z" fill="white"/>
<path opacity="0.1" d="M680.754 344.929L704.436 311.578L680.754 325.554V344.929Z" fill="#4C52F9"/>
<path d="M680.679 321.125L704.479 307.123L680.679 267.812L656.879 307.123L680.679 321.125Z" fill="url(#paint7_linear_2813_28970)"/>
<path d="M680.679 321.125L704.479 307.123L680.679 267.812L656.879 307.123L680.679 321.125Z" fill="white"/>
<path opacity="0.1" d="M680.68 321.124L656.879 307.123L680.68 267.812L680.68 321.124Z" fill="#4C52F9"/>
<path opacity="0.1" d="M680.679 321.129V295.969L656.879 307.127L680.679 321.129Z" fill="#4C52F9"/>
<path opacity="0.1" d="M680.68 321.129V295.969L704.48 307.127L680.68 321.129Z" fill="#4C52F9"/>
</g>
<defs>
<linearGradient id="paint0_linear_2813_28970" x1="527.434" y1="305.621" x2="835.758" y2="305.621" gradientUnits="userSpaceOnUse">
<stop stop-color="#1A82FF"/>
<stop offset="0.5" stop-color="#7A26F3"/>
<stop offset="1" stop-color="#D6453B"/>
</linearGradient>
<linearGradient id="paint1_linear_2813_28970" x1="656.883" y1="306.005" x2="704.798" y2="306.005" gradientUnits="userSpaceOnUse">
<stop offset="0.25" stop-color="#1A82FF"/>
<stop offset="0.5" stop-color="#7A26F3"/>
<stop offset="0.74" stop-color="#D6453B"/>
</linearGradient>
<linearGradient id="paint2_linear_2813_28970" x1="689.333" y1="286.031" x2="669.86" y2="302.625" gradientUnits="userSpaceOnUse">
<stop stop-color="#4C52F9" stop-opacity="0.5"/>
<stop offset="1" stop-color="white"/>
</linearGradient>
<linearGradient id="paint3_linear_2813_28970" x1="672.036" y1="323.014" x2="686.846" y2="313.346" gradientUnits="userSpaceOnUse">
<stop stop-color="#4C52F9" stop-opacity="0.5"/>
<stop offset="1" stop-color="white"/>
</linearGradient>
<linearGradient id="paint4_linear_2813_28970" x1="596.895" y1="306.663" x2="764.783" y2="306.101" gradientUnits="userSpaceOnUse">
<stop offset="0.25" stop-color="#1A82FF"/>
<stop offset="0.5" stop-color="#7A26F3"/>
<stop offset="0.74" stop-color="#D6453B"/>
</linearGradient>
<linearGradient id="paint5_linear_2813_28970" x1="649.787" y1="365.466" x2="701.732" y2="331.439" gradientUnits="userSpaceOnUse">
<stop stop-color="#4C52F9" stop-opacity="0.5"/>
<stop offset="1" stop-color="white"/>
</linearGradient>
<linearGradient id="paint6_linear_2813_28970" x1="706.293" y1="237.508" x2="656.591" y2="273.418" gradientUnits="userSpaceOnUse">
<stop stop-color="#4C52F9" stop-opacity="0.5"/>
<stop offset="1" stop-color="white"/>
</linearGradient>
<linearGradient id="paint7_linear_2813_28970" x1="630.045" y1="282.048" x2="671.741" y2="307.493" gradientUnits="userSpaceOnUse">
<stop stop-color="#1C313F"/>
<stop offset="1" stop-color="white"/>
</linearGradient>
<clipPath id="clip0_2813_28970">
<rect width="168.451" height="168.452" fill="white" transform="translate(596.613 222.156)"/>
</clipPath>
</defs>
</svg>
