<svg width="682" height="682" viewBox="0 0 682 682" fill="none" xmlns="http://www.w3.org/2000/svg">
<rect width="682" height="682" rx="16" fill="#1E1F25"/>
<path d="M380.34 26.048V44H378.156V35.672H368.796V44H366.588V26.048H368.796V33.704H378.156V26.048H380.34ZM385.502 25.976C386.246 25.976 386.87 26.576 386.87 27.344C386.87 28.088 386.246 28.688 385.502 28.688C384.734 28.688 384.134 28.088 384.134 27.344C384.134 26.576 384.758 25.976 385.502 25.976ZM386.51 31.76V44H384.446V31.76H386.51ZM395.651 31.544C397.739 31.544 399.299 32.504 399.995 33.776V31.76H401.939V44.696C401.939 48.2 399.587 50.336 396.083 50.336C392.651 50.336 390.635 48.536 390.155 45.992L392.219 45.92C392.507 47.576 394.067 48.584 396.011 48.584C398.291 48.584 399.875 47.264 399.875 44.84V42.176C399.203 43.352 397.691 44.24 395.651 44.24C392.291 44.24 389.747 41.84 389.747 37.88C389.747 33.944 392.291 31.544 395.651 31.544ZM395.939 33.344C393.611 33.344 391.835 34.952 391.835 37.904C391.835 40.832 393.611 42.44 395.939 42.44C398.195 42.44 399.875 41.024 399.875 38.264V37.544C399.875 34.76 398.195 33.344 395.939 33.344ZM407.932 25.352V33.44C408.484 32.48 409.756 31.544 411.652 31.544C414.412 31.544 416.404 33.488 416.404 36.56V44H414.316V36.824C414.316 34.784 413.068 33.464 411.22 33.464C409.276 33.464 407.932 35 407.932 36.848V44H405.868V25.352H407.932ZM439.878 26.048L433.086 36.536V44H430.902V36.536L424.086 26.048H426.63L432.006 34.376L437.334 26.048H439.878ZM442.924 25.976C443.668 25.976 444.292 26.576 444.292 27.344C444.292 28.088 443.668 28.688 442.924 28.688C442.156 28.688 441.556 28.088 441.556 27.344C441.556 26.576 442.18 25.976 442.924 25.976ZM443.932 31.76V44H441.868V31.76H443.932ZM458.809 37.544V38.672H449.353C449.473 41.024 451.033 42.44 453.193 42.44C454.993 42.44 456.217 41.624 456.625 40.256L458.689 40.376C458.185 42.584 456.073 44.24 453.241 44.24C449.737 44.24 447.169 41.864 447.169 37.88C447.169 33.896 449.713 31.544 453.193 31.544C456.697 31.544 458.809 33.92 458.809 37.544ZM453.169 33.344C451.057 33.344 449.497 34.616 449.353 36.992H456.745C456.697 34.856 455.497 33.344 453.169 33.344ZM464.088 25.352V44H462.024V25.352H464.088ZM479.47 25.352V44H477.526V42.008C476.83 43.28 475.27 44.24 473.182 44.24C469.822 44.24 467.278 41.84 467.278 37.904C467.278 33.944 469.822 31.544 473.182 31.544C475.222 31.544 476.734 32.432 477.406 33.608V25.352H479.47ZM473.47 33.344C471.142 33.344 469.366 34.952 469.366 37.88C469.366 40.832 471.142 42.44 473.47 42.44C475.726 42.44 477.406 41.024 477.406 38.24V37.52C477.406 34.76 475.726 33.344 473.47 33.344Z" fill="#FAFBFB"/>
<path d="M371.726 630.048V646.056H380.726V648H369.518V630.048H371.726ZM388.511 635.544C392.063 635.544 394.799 637.992 394.799 641.88C394.799 645.768 392.063 648.24 388.511 648.24C384.959 648.24 382.223 645.768 382.223 641.88C382.223 637.992 384.959 635.544 388.511 635.544ZM388.511 637.344C386.135 637.344 384.311 639.024 384.311 641.88C384.311 644.736 386.135 646.44 388.511 646.44C390.887 646.44 392.711 644.736 392.711 641.88C392.711 639.024 390.887 637.344 388.511 637.344ZM415.063 635.76L410.407 648H408.751L405.463 639.24L402.175 648H400.519L395.863 635.76H398.119L401.407 644.64L404.719 635.76H406.183L409.519 644.64L412.831 635.76H415.063ZM436.948 630.048L430.156 640.536V648H427.972V640.536L421.156 630.048H423.7L429.076 638.376L434.404 630.048H436.948ZM439.994 629.976C440.738 629.976 441.362 630.576 441.362 631.344C441.362 632.088 440.738 632.688 439.994 632.688C439.226 632.688 438.626 632.088 438.626 631.344C438.626 630.576 439.25 629.976 439.994 629.976ZM441.002 635.76V648H438.938V635.76H441.002ZM455.879 641.544V642.672H446.423C446.543 645.024 448.103 646.44 450.263 646.44C452.063 646.44 453.287 645.624 453.695 644.256L455.759 644.376C455.255 646.584 453.143 648.24 450.311 648.24C446.807 648.24 444.239 645.864 444.239 641.88C444.239 637.896 446.783 635.544 450.263 635.544C453.767 635.544 455.879 637.92 455.879 641.544ZM450.239 637.344C448.127 637.344 446.567 638.616 446.423 640.992H453.815C453.767 638.856 452.567 637.344 450.239 637.344ZM461.158 629.352V648H459.094V629.352H461.158ZM476.54 629.352V648H474.596V646.008C473.9 647.28 472.34 648.24 470.252 648.24C466.892 648.24 464.348 645.84 464.348 641.904C464.348 637.944 466.892 635.544 470.252 635.544C472.292 635.544 473.804 636.432 474.476 637.608V629.352H476.54ZM470.54 637.344C468.212 637.344 466.436 638.952 466.436 641.88C466.436 644.832 468.212 646.44 470.54 646.44C472.796 646.44 474.476 645.024 474.476 642.24V641.52C474.476 638.76 472.796 637.344 470.54 637.344Z" fill="#FAFBFB"/>
<path d="M566.207 298.048V316H564.023V307.672H554.663V316H552.455V298.048H554.663V305.704H564.023V298.048H566.207ZM571.369 297.976C572.113 297.976 572.737 298.576 572.737 299.344C572.737 300.088 572.113 300.688 571.369 300.688C570.601 300.688 570.001 300.088 570.001 299.344C570.001 298.576 570.625 297.976 571.369 297.976ZM572.377 303.76V316H570.313V303.76H572.377ZM581.518 303.544C583.606 303.544 585.166 304.504 585.862 305.776V303.76H587.806V316.696C587.806 320.2 585.454 322.336 581.95 322.336C578.518 322.336 576.502 320.536 576.022 317.992L578.086 317.92C578.374 319.576 579.934 320.584 581.878 320.584C584.158 320.584 585.742 319.264 585.742 316.84V314.176C585.07 315.352 583.558 316.24 581.518 316.24C578.158 316.24 575.614 313.84 575.614 309.88C575.614 305.944 578.158 303.544 581.518 303.544ZM581.806 305.344C579.478 305.344 577.702 306.952 577.702 309.904C577.702 312.832 579.478 314.44 581.806 314.44C584.062 314.44 585.742 313.024 585.742 310.264V309.544C585.742 306.76 584.062 305.344 581.806 305.344ZM593.799 297.352V305.44C594.351 304.48 595.623 303.544 597.519 303.544C600.279 303.544 602.271 305.488 602.271 308.56V316H600.183V308.824C600.183 306.784 598.935 305.464 597.087 305.464C595.143 305.464 593.799 307 593.799 308.848V316H591.735V297.352H593.799ZM625.097 316H622.625L618.593 308.8H613.913V316H611.705V298.048H618.641C621.737 298.048 624.161 299.848 624.161 303.424C624.161 306.064 622.841 307.744 620.873 308.44L625.097 316ZM613.889 306.856H618.377C620.273 306.856 621.905 305.776 621.905 303.424C621.905 301.072 620.273 299.992 618.377 299.992H613.889V306.856ZM629.002 297.976C629.746 297.976 630.37 298.576 630.37 299.344C630.37 300.088 629.746 300.688 629.002 300.688C628.234 300.688 627.634 300.088 627.634 299.344C627.634 298.576 628.258 297.976 629.002 297.976ZM630.01 303.76V316H627.946V303.76H630.01ZM637.831 303.568C640.567 303.544 642.055 305.128 642.319 307.24L640.255 307.36C640.111 306.136 639.319 305.32 637.759 305.344C636.199 305.32 635.431 306.04 635.431 307.12C635.431 308.416 636.583 308.512 638.335 308.92C640.927 309.544 642.583 310.264 642.583 312.448C642.583 314.872 640.783 316.24 637.951 316.24C635.191 316.24 633.415 314.872 633.103 312.52L635.167 312.376C635.359 313.72 636.367 314.44 637.999 314.44C639.463 314.44 640.519 313.84 640.519 312.616C640.519 311.368 639.703 311.08 637.495 310.552C635.119 310 633.343 309.544 633.343 307.144C633.343 305.008 634.951 303.544 637.831 303.568ZM647.963 297.352V309.136L653.339 303.76H655.907L650.747 309.088L656.483 316H653.843L649.283 310.6L647.963 311.896V316H645.899V297.352H647.963Z" fill="#FAFBFB"/>
<path d="M34.5929 298.048V314.056H43.5929V316H32.3849V298.048H34.5929ZM51.3786 303.544C54.9306 303.544 57.6666 305.992 57.6666 309.88C57.6666 313.768 54.9306 316.24 51.3786 316.24C47.8266 316.24 45.0906 313.768 45.0906 309.88C45.0906 305.992 47.8266 303.544 51.3786 303.544ZM51.3786 305.344C49.0026 305.344 47.1786 307.024 47.1786 309.88C47.1786 312.736 49.0026 314.44 51.3786 314.44C53.7546 314.44 55.5786 312.736 55.5786 309.88C55.5786 307.024 53.7546 305.344 51.3786 305.344ZM77.9305 303.76L73.2745 316H71.6185L68.3305 307.24L65.0425 316H63.3865L58.7305 303.76H60.9865L64.2745 312.64L67.5865 303.76H69.0505L72.3865 312.64L75.6985 303.76H77.9305ZM99.1675 316H96.6955L92.6635 308.8H87.9835V316H85.7755V298.048H92.7115C95.8075 298.048 98.2315 299.848 98.2315 303.424C98.2315 306.064 96.9115 307.744 94.9435 308.44L99.1675 316ZM87.9595 306.856H92.4475C94.3435 306.856 95.9755 305.776 95.9755 303.424C95.9755 301.072 94.3435 299.992 92.4475 299.992H87.9595V306.856ZM103.072 297.976C103.816 297.976 104.44 298.576 104.44 299.344C104.44 300.088 103.816 300.688 103.072 300.688C102.304 300.688 101.704 300.088 101.704 299.344C101.704 298.576 102.328 297.976 103.072 297.976ZM104.08 303.76V316H102.016V303.76H104.08ZM111.901 303.568C114.637 303.544 116.125 305.128 116.389 307.24L114.325 307.36C114.181 306.136 113.389 305.32 111.829 305.344C110.269 305.32 109.501 306.04 109.501 307.12C109.501 308.416 110.653 308.512 112.405 308.92C114.997 309.544 116.653 310.264 116.653 312.448C116.653 314.872 114.853 316.24 112.021 316.24C109.261 316.24 107.485 314.872 107.173 312.52L109.237 312.376C109.429 313.72 110.437 314.44 112.069 314.44C113.533 314.44 114.589 313.84 114.589 312.616C114.589 311.368 113.773 311.08 111.565 310.552C109.189 310 107.413 309.544 107.413 307.144C107.413 305.008 109.021 303.544 111.901 303.568ZM122.033 297.352V309.136L127.409 303.76H129.977L124.817 309.088L130.553 316H127.913L123.353 310.6L122.033 311.896V316H119.969V297.352H122.033Z" fill="#FAFBFB"/>
<g clip-path="url(#clip0_2414_27956)">
<path d="M467.244 192.112L465.934 190.983L466.209 189.774L467.904 183.191L472.999 174.945L475.36 176.229L472.999 179.755L467.072 189.347L473.916 189.19L476.461 190.982L477.573 192.112L479.732 193.913L472.867 203.343L470.669 201.826L472.999 198.704V196.287L467.687 194.756L466.739 193.855L467.244 192.112Z" fill="#183240"/>
<path d="M473 210C484.598 210 494 200.598 494 189C494 177.402 484.598 168 473 168C461.402 168 452 177.402 452 189C452 200.598 461.402 210 473 210Z" fill="#626262"/>
<path opacity="0.1" d="M486.127 202.039C493.327 194.789 493.289 183.075 486.039 175.875C478.789 168.675 467.075 168.713 459.875 175.963L486.127 202.039Z" fill="white"/>
</g>
<g clip-path="url(#clip1_2414_27956)">
<path d="M471.244 137.112L469.934 135.983L470.209 134.774L471.904 128.191L476.999 119.945L479.36 121.229L476.999 124.755L471.072 134.347L477.916 134.19L480.461 135.982L481.573 137.112L483.732 138.913L476.867 148.343L474.669 146.826L476.999 143.704V141.287L471.687 139.756L470.739 138.855L471.244 137.112Z" fill="#183240"/>
<path d="M477 155C488.598 155 498 145.598 498 134C498 122.402 488.598 113 477 113C465.402 113 456 122.402 456 134C456 145.598 465.402 155 477 155Z" fill="#626262"/>
<path opacity="0.1" d="M490.127 147.039C497.327 139.789 497.289 128.075 490.039 120.875C482.789 113.675 471.075 113.713 463.875 120.963L490.127 147.039Z" fill="white"/>
</g>
<g clip-path="url(#clip2_2414_27956)">
<path d="M590.244 159.112L588.934 157.983L589.209 156.774L590.904 150.191L595.999 141.945L598.36 143.229L595.999 146.755L590.072 156.347L596.916 156.19L599.461 157.982L600.573 159.112L602.732 160.913L595.867 170.343L593.669 168.826L595.999 165.704V163.287L590.687 161.756L589.739 160.855L590.244 159.112Z" fill="#183240"/>
<path d="M596 177C607.598 177 617 167.598 617 156C617 144.402 607.598 135 596 135C584.402 135 575 144.402 575 156C575 167.598 584.402 177 596 177Z" fill="#626262"/>
<path opacity="0.1" d="M609.127 169.039C616.327 161.789 616.289 150.075 609.039 142.875C601.789 135.675 590.075 135.713 582.875 142.963L609.127 169.039Z" fill="white"/>
</g>
<g clip-path="url(#clip3_2414_27956)">
<path d="M515.244 172.112L513.934 170.983L514.209 169.774L515.904 163.191L520.999 154.945L523.36 156.229L520.999 159.755L515.072 169.347L521.916 169.19L524.461 170.982L525.573 172.112L527.732 173.913L520.867 183.343L518.669 181.826L520.999 178.704V176.287L515.687 174.756L514.739 173.855L515.244 172.112Z" fill="#183240"/>
<path d="M521 190C532.598 190 542 180.598 542 169C542 157.402 532.598 148 521 148C509.402 148 500 157.402 500 169C500 180.598 509.402 190 521 190Z" fill="#626262"/>
<path opacity="0.1" d="M534.127 182.039C541.327 174.789 541.289 163.075 534.039 155.875C526.789 148.675 515.075 148.713 507.875 155.963L534.127 182.039Z" fill="white"/>
</g>
<g clip-path="url(#clip4_2414_27956)">
<path d="M545.244 122.112L543.934 120.983L544.209 119.774L545.904 113.191L550.999 104.945L553.36 106.229L550.999 109.755L545.072 119.347L551.916 119.19L554.461 120.982L555.573 122.112L557.732 123.913L550.867 133.343L548.669 131.826L550.999 128.704V126.287L545.687 124.756L544.739 123.855L545.244 122.112Z" fill="#183240"/>
<path d="M551 140C562.598 140 572 130.598 572 119C572 107.402 562.598 98 551 98C539.402 98 530 107.402 530 119C530 130.598 539.402 140 551 140Z" fill="#626262"/>
<path opacity="0.1" d="M564.127 132.039C571.327 124.789 571.289 113.075 564.039 105.875C556.789 98.6746 545.075 98.7131 537.875 105.963L564.127 132.039Z" fill="white"/>
</g>
<g clip-path="url(#clip5_2414_27956)">
<path d="M422.244 150.112L420.934 148.983L421.209 147.774L422.904 141.191L427.999 132.945L430.36 134.229L427.999 137.755L422.072 147.347L428.916 147.19L431.461 148.982L432.573 150.112L434.732 151.913L427.867 161.343L425.669 159.826L427.999 156.704V154.287L422.687 152.756L421.739 151.855L422.244 150.112Z" fill="#183240"/>
<path d="M428 168C439.598 168 449 158.598 449 147C449 135.402 439.598 126 428 126C416.402 126 407 135.402 407 147C407 158.598 416.402 168 428 168Z" fill="#626262"/>
<path opacity="0.1" d="M441.127 160.039C448.327 152.789 448.289 141.075 441.039 133.875C433.789 126.675 422.075 126.713 414.875 133.963L441.127 160.039Z" fill="white"/>
</g>
<g clip-path="url(#clip6_2414_27956)">
<path d="M557.244 197.112L555.934 195.983L556.209 194.774L557.904 188.191L562.999 179.945L565.36 181.229L562.999 184.755L557.072 194.347L563.916 194.19L566.461 195.982L567.573 197.112L569.732 198.913L562.867 208.343L560.669 206.826L562.999 203.704V201.287L557.687 199.756L556.739 198.855L557.244 197.112Z" fill="#183240"/>
<path d="M563 215C574.598 215 584 205.598 584 194C584 182.402 574.598 173 563 173C551.402 173 542 182.402 542 194C542 205.598 551.402 215 563 215Z" fill="#626262"/>
<path opacity="0.1" d="M576.127 207.039C583.327 199.789 583.289 188.075 576.039 180.875C568.789 173.675 557.075 173.713 549.875 180.963L576.127 207.039Z" fill="white"/>
</g>
<path d="M488.033 246H485.249L482.913 241.696H480.913V246H478.433V234.032H483.553C485.825 234.032 487.409 235.408 487.409 237.872C487.409 239.536 486.673 240.72 485.489 241.296L488.033 246ZM480.897 239.504H483.249C484.209 239.504 484.897 238.928 484.897 237.872C484.897 236.784 484.209 236.208 483.249 236.208H480.897V239.504ZM497.003 241.68V242.608H491.324C491.372 243.632 491.996 244.288 493.052 244.288C493.868 244.288 494.396 243.952 494.572 243.376L496.924 243.488C496.635 245.056 495.052 246.176 493.116 246.176C490.588 246.176 488.844 244.528 488.844 241.872C488.844 239.2 490.588 237.568 493.052 237.568C495.436 237.568 497.003 239.104 497.003 241.68ZM493.036 239.392C492.044 239.392 491.388 240 491.324 241.056H494.652C494.604 240.048 494.092 239.392 493.036 239.392ZM501.592 237.568C503.688 237.568 504.792 238.704 504.936 240.24L502.616 240.368C502.584 239.776 502.28 239.36 501.56 239.36C500.936 239.36 500.616 239.616 500.616 240.064C500.616 240.64 501.24 240.72 502.232 240.976C503.88 241.408 505.048 241.92 505.048 243.424C505.048 245.104 503.816 246.176 501.656 246.176C499.544 246.176 498.312 245.216 498.136 243.488L500.472 243.36C500.504 243.968 500.872 244.384 501.672 244.384C502.312 244.384 502.712 244.112 502.712 243.632C502.712 243.136 502.408 242.976 501.208 242.688C499.448 242.24 498.28 241.872 498.28 240.176C498.28 238.592 499.512 237.568 501.592 237.568ZM511.576 239.744H509.624L509.608 242.816C509.608 243.728 510.2 244.064 510.856 244.064C511.192 244.064 511.4 244.016 511.576 243.984V246.064C511.24 246.112 510.92 246.16 510.28 246.16C508.488 246.16 507.256 245.296 507.272 243.376L507.288 239.744H505.784V237.728H507.304L507.32 234.992H509.656L509.64 237.728H511.576V239.744ZM516.399 237.568C518.623 237.568 519.839 238.72 519.839 240.896V246H517.583V245.328C517.119 245.808 516.415 246.176 515.471 246.176C513.807 246.176 512.719 245.328 512.719 243.728C512.719 241.888 514.271 241.296 516.031 241.216L517.503 241.136V240.816C517.503 239.984 517.151 239.536 516.431 239.536C515.631 239.536 515.279 240.08 515.279 240.624L512.943 240.528C512.943 239.072 514.271 237.568 516.399 237.568ZM517.503 242.672L516.255 242.752C515.551 242.784 515.055 243.024 515.055 243.616C515.055 244.16 515.455 244.368 516.015 244.368C516.863 244.368 517.503 243.904 517.503 243.024V242.672ZM524.315 233.568V240.672L526.987 237.728H529.819L526.699 241.264L530.043 246H527.211L525.051 243.008L524.315 243.808V246H521.979V233.568H524.315ZM532.366 233.616C533.15 233.616 533.774 234.24 533.774 235.024C533.774 235.792 533.15 236.416 532.366 236.416C531.582 236.416 530.974 235.792 530.974 235.024C530.974 234.24 531.614 233.616 532.366 233.616ZM533.534 237.728V246H531.198V237.728H533.534ZM540.192 237.568C542.096 237.568 543.424 238.8 543.424 240.944V246H541.088V241.392C541.088 240.336 540.528 239.744 539.632 239.744C538.704 239.744 538.096 240.416 538.096 241.408V246H535.76V237.728H537.968V238.576C538.336 238 539.072 237.568 540.192 237.568ZM549.093 237.568C550.261 237.568 551.125 238.016 551.557 238.592V237.728H553.749V246.304C553.749 248.688 552.117 250.24 549.573 250.24C546.981 250.24 545.621 248.944 545.317 247.056L547.637 246.976C547.749 247.776 548.437 248.256 549.493 248.256C550.645 248.256 551.429 247.664 551.429 246.48V245.296C550.981 245.776 550.165 246.176 549.093 246.176C546.757 246.176 545.109 244.464 545.109 241.872C545.109 239.28 546.757 237.568 549.093 237.568ZM549.477 239.568C548.309 239.568 547.477 240.4 547.477 241.872C547.477 243.344 548.309 244.176 549.477 244.176C550.629 244.176 551.429 243.392 551.429 242.064V241.68C551.429 240.352 550.629 239.568 549.477 239.568Z" fill="#FAFBFB"/>
<g clip-path="url(#clip7_2414_27956)">
<path d="M131.244 507.112L129.934 505.983L130.209 504.774L131.904 498.191L136.999 489.945L139.36 491.229L136.999 494.755L131.072 504.347L137.916 504.19L140.461 505.982L141.573 507.112L143.732 508.913L136.867 518.343L134.669 516.826L136.999 513.704V511.287L131.687 509.756L130.739 508.855L131.244 507.112Z" fill="#183240"/>
<path d="M137 525C148.598 525 158 515.598 158 504C158 492.402 148.598 483 137 483C125.402 483 116 492.402 116 504C116 515.598 125.402 525 137 525Z" fill="#626262"/>
<path opacity="0.1" d="M150.127 517.039C157.327 509.789 157.289 498.075 150.039 490.875C142.789 483.675 131.075 483.713 123.875 490.963L150.127 517.039Z" fill="white"/>
</g>
<g clip-path="url(#clip8_2414_27956)">
<path d="M126.244 459.112L124.934 457.983L125.209 456.774L126.904 450.191L131.999 441.945L134.36 443.229L131.999 446.755L126.072 456.347L132.916 456.19L135.461 457.982L136.573 459.112L138.732 460.913L131.867 470.343L129.669 468.826L131.999 465.704V463.287L126.687 461.756L125.739 460.855L126.244 459.112Z" fill="#183240"/>
<path d="M132 477C143.598 477 153 467.598 153 456C153 444.402 143.598 435 132 435C120.402 435 111 444.402 111 456C111 467.598 120.402 477 132 477Z" fill="#626262"/>
<path opacity="0.1" d="M145.127 469.039C152.327 461.789 152.289 450.075 145.039 442.875C137.789 435.675 126.075 435.713 118.875 442.963L145.127 469.039Z" fill="white"/>
</g>
<g clip-path="url(#clip9_2414_27956)">
<path d="M264.244 500.112L262.934 498.983L263.209 497.774L264.904 491.191L269.999 482.945L272.36 484.229L269.999 487.755L264.072 497.347L270.916 497.19L273.461 498.982L274.573 500.112L276.732 501.913L269.867 511.343L267.669 509.826L269.999 506.704V504.287L264.687 502.756L263.739 501.855L264.244 500.112Z" fill="#183240"/>
<path d="M270 518C281.598 518 291 508.598 291 497C291 485.402 281.598 476 270 476C258.402 476 249 485.402 249 497C249 508.598 258.402 518 270 518Z" fill="#626262"/>
<path opacity="0.1" d="M283.127 510.039C290.327 502.789 290.289 491.075 283.039 483.875C275.789 476.675 264.075 476.713 256.875 483.963L283.127 510.039Z" fill="white"/>
</g>
<g clip-path="url(#clip10_2414_27956)">
<path d="M179.244 493.112L177.934 491.983L178.209 490.774L179.904 484.191L184.999 475.945L187.36 477.229L184.999 480.755L179.072 490.347L185.916 490.19L188.461 491.982L189.573 493.112L191.732 494.913L184.867 504.343L182.669 502.826L184.999 499.704V497.287L179.687 495.756L178.739 494.855L179.244 493.112Z" fill="#183240"/>
<path d="M185 511C196.598 511 206 501.598 206 490C206 478.402 196.598 469 185 469C173.402 469 164 478.402 164 490C164 501.598 173.402 511 185 511Z" fill="#626262"/>
<path opacity="0.1" d="M198.127 503.039C205.327 495.789 205.289 484.075 198.039 476.875C190.789 469.675 179.075 469.713 171.875 476.963L198.127 503.039Z" fill="white"/>
</g>
<g clip-path="url(#clip11_2414_27956)">
<path d="M217.244 464.112L215.934 462.983L216.209 461.774L217.904 455.191L222.999 446.945L225.36 448.229L222.999 451.755L217.072 461.347L223.916 461.19L226.461 462.982L227.573 464.112L229.732 465.913L222.867 475.343L220.669 473.826L222.999 470.704V468.287L217.687 466.756L216.739 465.855L217.244 464.112Z" fill="#183240"/>
<path d="M223 482C234.598 482 244 472.598 244 461C244 449.402 234.598 440 223 440C211.402 440 202 449.402 202 461C202 472.598 211.402 482 223 482Z" fill="#626262"/>
<path opacity="0.1" d="M236.127 474.039C243.327 466.789 243.289 455.075 236.039 447.875C228.789 440.675 217.075 440.713 209.875 447.963L236.127 474.039Z" fill="white"/>
</g>
<g clip-path="url(#clip12_2414_27956)">
<path d="M77.2438 472.112L75.9336 470.983L76.2089 469.774L77.9038 463.191L82.9993 454.945L85.3602 456.229L82.9993 459.755L77.0719 469.347L83.9165 469.19L86.4612 470.982L87.5731 472.112L89.732 473.913L82.8671 483.343L80.6685 481.826L82.9993 478.704V476.287L77.6874 474.756L76.739 473.855L77.2438 472.112Z" fill="#183240"/>
<path d="M83 490C94.598 490 104 480.598 104 469C104 457.402 94.598 448 83 448C71.402 448 62 457.402 62 469C62 480.598 71.402 490 83 490Z" fill="#626262"/>
<path opacity="0.1" d="M96.1268 482.039C103.327 474.789 103.289 463.075 96.0391 455.875C88.7894 448.675 77.0753 448.713 69.875 455.963L96.1268 482.039Z" fill="white"/>
</g>
<g clip-path="url(#clip13_2414_27956)">
<path d="M227.244 533.112L225.934 531.983L226.209 530.774L227.904 524.191L232.999 515.945L235.36 517.229L232.999 520.755L227.072 530.347L233.916 530.19L236.461 531.982L237.573 533.112L239.732 534.913L232.867 544.343L230.669 542.826L232.999 539.704V537.287L227.687 535.756L226.739 534.855L227.244 533.112Z" fill="#183240"/>
<path d="M233 551C244.598 551 254 541.598 254 530C254 518.402 244.598 509 233 509C221.402 509 212 518.402 212 530C212 541.598 221.402 551 233 551Z" fill="#626262"/>
<path opacity="0.1" d="M246.127 543.039C253.327 535.789 253.289 524.075 246.039 516.875C238.789 509.675 227.075 509.713 219.875 516.963L246.127 543.039Z" fill="white"/>
</g>
<path d="M145.411 544.856C148.003 544.856 149.779 546.232 149.843 548.536L147.315 548.664C147.299 547.656 146.595 547 145.459 547C144.323 547 143.683 547.592 143.683 548.44C143.683 549.352 144.371 549.608 146.019 549.992C148.467 550.616 150.083 551.384 150.083 553.512C150.083 556.056 148.083 557.176 145.683 557.176C142.915 557.176 140.915 555.816 140.883 553.336L143.395 553.208C143.443 554.296 144.387 555.032 145.683 555.032C146.787 555.032 147.571 554.632 147.571 553.656C147.571 552.744 146.707 552.408 145.107 552.008C142.947 551.464 141.155 550.84 141.155 548.52C141.155 546.552 142.547 544.856 145.411 544.856ZM156.647 550.744H154.695L154.679 553.816C154.679 554.728 155.271 555.064 155.927 555.064C156.263 555.064 156.471 555.016 156.647 554.984V557.064C156.311 557.112 155.991 557.16 155.351 557.16C153.559 557.16 152.327 556.296 152.343 554.376L152.359 550.744H150.855V548.728H152.375L152.391 545.992H154.727L154.711 548.728H156.647V550.744ZM161.469 548.568C163.693 548.568 164.909 549.72 164.909 551.896V557H162.653V556.328C162.189 556.808 161.485 557.176 160.541 557.176C158.877 557.176 157.789 556.328 157.789 554.728C157.789 552.888 159.341 552.296 161.101 552.216L162.573 552.136V551.816C162.573 550.984 162.221 550.536 161.501 550.536C160.701 550.536 160.349 551.08 160.349 551.624L158.013 551.528C158.013 550.072 159.341 548.568 161.469 548.568ZM162.573 553.672L161.325 553.752C160.621 553.784 160.125 554.024 160.125 554.616C160.125 555.16 160.525 555.368 161.085 555.368C161.933 555.368 162.573 554.904 162.573 554.024V553.672ZM169.385 544.568V551.672L172.057 548.728H174.889L171.769 552.264L175.113 557H172.281L170.121 554.008L169.385 554.808V557H167.049V544.568H169.385ZM177.436 544.616C178.22 544.616 178.844 545.24 178.844 546.024C178.844 546.792 178.22 547.416 177.436 547.416C176.652 547.416 176.044 546.792 176.044 546.024C176.044 545.24 176.684 544.616 177.436 544.616ZM178.604 548.728V557H176.268V548.728H178.604ZM185.263 548.568C187.167 548.568 188.495 549.8 188.495 551.944V557H186.159V552.392C186.159 551.336 185.599 550.744 184.703 550.744C183.775 550.744 183.167 551.416 183.167 552.408V557H180.831V548.728H183.039V549.576C183.407 549 184.143 548.568 185.263 548.568ZM194.163 548.568C195.331 548.568 196.195 549.016 196.627 549.592V548.728H198.819V557.304C198.819 559.688 197.187 561.24 194.643 561.24C192.051 561.24 190.691 559.944 190.387 558.056L192.707 557.976C192.819 558.776 193.507 559.256 194.563 559.256C195.715 559.256 196.499 558.664 196.499 557.48V556.296C196.051 556.776 195.235 557.176 194.163 557.176C191.827 557.176 190.179 555.464 190.179 552.872C190.179 550.28 191.827 548.568 194.163 548.568ZM194.547 550.568C193.379 550.568 192.547 551.4 192.547 552.872C192.547 554.344 193.379 555.176 194.547 555.176C195.699 555.176 196.499 554.392 196.499 553.064V552.68C196.499 551.352 195.699 550.568 194.547 550.568Z" fill="#FAFBFB"/>
<g clip-path="url(#clip14_2414_27956)">
<path d="M178.758 140.809L177.906 140.076L178.085 139.289L179.187 135.01L182.5 129.648L184.035 130.483L182.5 132.775L178.646 139.012L183.096 138.91L184.751 140.075L185.474 140.809L186.877 141.98L182.414 148.111L180.985 147.125L182.5 145.095V143.524L179.047 142.529L178.43 141.943L178.758 140.809Z" fill="#183240"/>
<path d="M182.501 152.439C190.042 152.439 196.154 146.327 196.154 138.786C196.154 131.246 190.042 125.133 182.501 125.133C174.96 125.133 168.848 131.246 168.848 138.786C168.848 146.327 174.96 152.439 182.501 152.439Z" fill="url(#paint0_linear_2414_27956)"/>
<path opacity="0.2" d="M191.033 147.263C195.714 142.55 195.689 134.934 190.976 130.252C186.262 125.571 178.646 125.596 173.965 130.309L191.033 147.263Z" fill="white"/>
<path d="M183.151 144.22C182.937 144.245 182.719 144.26 182.499 144.26C179.526 144.26 177.107 141.841 177.107 138.868C177.107 136.49 178.655 134.468 180.797 133.754L182.375 131.195C178.2 131.262 174.824 134.678 174.824 138.869C174.824 142.767 177.744 145.994 181.512 146.481L183.151 144.22L183.151 144.22Z" fill="white"/>
<path d="M177.107 138.868C177.107 136.49 178.655 134.468 180.797 133.754L182.375 131.195C178.2 131.262 174.824 134.678 174.824 138.869H177.108L177.107 138.868Z" fill="url(#paint1_linear_2414_27956)"/>
<path d="M183.436 131.25L182.051 133.497C182.199 133.484 182.349 133.477 182.5 133.477C185.473 133.477 187.892 135.895 187.892 138.868C187.892 141.136 186.484 143.081 184.496 143.876L182.561 146.543C186.765 146.51 190.176 143.08 190.176 138.868C190.176 134.953 187.228 131.713 183.436 131.25Z" fill="white"/>
<path d="M187.889 138.867C187.889 141.135 186.481 143.08 184.494 143.874L182.559 146.542C186.762 146.509 190.173 143.079 190.173 138.867H187.889Z" fill="url(#paint2_linear_2414_27956)"/>
<path d="M178.845 140.067L182.502 142.174L186.161 140.067L182.502 145.093L178.845 140.067ZM178.648 139.01L182.503 132.773L186.357 139.01L182.503 141.232L178.649 139.01H178.648Z" fill="white"/>
<path d="M182.66 186.839C209.081 186.751 230.428 165.261 230.34 138.839C230.251 112.418 208.761 91.0715 182.34 91.16C155.919 91.2485 134.572 112.739 134.66 139.16C134.749 165.581 156.239 186.928 182.66 186.839Z" fill="url(#paint3_linear_2414_27956)"/>
<path opacity="0.2" d="M212.404 168.714C228.807 152.202 228.725 125.502 212.212 109.099C195.7 92.6963 169.001 92.7784 152.598 109.291L212.404 168.714Z" fill="white"/>
<path d="M180.548 120.103C181.19 120.037 181.842 120.004 182.501 120.004C192.987 120.004 201.488 128.504 201.488 138.99C201.488 147.167 196.319 154.137 189.07 156.81L182.628 165.87C197.415 165.802 209.381 153.794 209.381 138.99C209.381 125.09 198.83 113.654 185.3 112.254L180.548 120.103Z" fill="white"/>
<path d="M181.891 112.117C167.327 112.441 155.621 124.349 155.621 138.99C155.621 152.688 165.867 163.993 179.113 165.659L184.662 157.855C183.953 157.936 183.232 157.977 182.501 157.977C172.015 157.977 163.514 149.476 163.514 138.99C163.514 130.587 168.973 123.459 176.538 120.959L181.891 112.117Z" fill="white"/>
<path d="M189.067 156.812C196.316 154.139 201.485 147.169 201.485 138.992H209.379C209.379 153.795 197.412 165.804 182.625 165.872L189.067 156.812Z" fill="url(#paint4_linear_2414_27956)"/>
<path d="M181.891 112.117C167.327 112.441 155.621 124.349 155.621 138.99C155.621 138.99 163.514 139.104 163.514 138.99C163.514 130.587 168.973 123.459 176.538 120.959L181.891 112.117Z" fill="url(#paint5_linear_2414_27956)"/>
<path d="M182.454 160.967L195.951 141.961L182.454 149.926L168.965 141.961L182.454 160.967Z" fill="white"/>
<path opacity="0.1" d="M182.453 160.967L195.95 141.961L182.453 149.926V160.967Z" fill="#4C52F9"/>
<path d="M182.411 147.406L195.975 139.427L182.411 117.023L168.848 139.427L182.411 147.406Z" fill="url(#paint6_linear_2414_27956)"/>
<path d="M182.411 147.406L195.975 139.427L182.411 117.023L168.848 139.427L182.411 147.406Z" fill="white"/>
<path opacity="0.1" d="M182.41 147.406L168.846 139.427L182.41 117.023L182.41 147.406Z" fill="#4C52F9"/>
<path opacity="0.1" d="M182.411 147.409V133.07L168.848 139.429L182.411 147.409Z" fill="#4C52F9"/>
<path opacity="0.1" d="M182.413 147.409V133.07L195.977 139.429L182.413 147.409Z" fill="#4C52F9"/>
</g>
<path d="M139.2 210.856C141.792 210.856 143.568 212.232 143.632 214.536L141.104 214.664C141.088 213.656 140.384 213 139.248 213C138.112 213 137.472 213.592 137.472 214.44C137.472 215.352 138.16 215.608 139.808 215.992C142.256 216.616 143.872 217.384 143.872 219.512C143.872 222.056 141.872 223.176 139.472 223.176C136.704 223.176 134.704 221.816 134.672 219.336L137.184 219.208C137.232 220.296 138.176 221.032 139.472 221.032C140.576 221.032 141.36 220.632 141.36 219.656C141.36 218.744 140.496 218.408 138.896 218.008C136.736 217.464 134.944 216.84 134.944 214.52C134.944 212.552 136.336 210.856 139.2 210.856ZM152.948 214.728V223H150.74V222.168C150.42 222.68 149.764 223.176 148.596 223.176C146.692 223.176 145.54 221.944 145.54 219.928V214.728H147.876V219.432C147.876 220.44 148.292 221 149.204 221C150.1 221 150.612 220.328 150.612 219.4V214.728H152.948ZM159.807 214.568C162.159 214.568 163.807 216.28 163.807 218.872C163.807 221.464 162.159 223.176 159.807 223.176C158.751 223.176 157.919 222.776 157.487 222.296V227.08H155.151V214.728H157.359V215.592C157.791 215.016 158.655 214.568 159.807 214.568ZM159.439 216.568C158.287 216.568 157.487 217.352 157.487 218.68V219.064C157.487 220.392 158.287 221.176 159.439 221.176C160.607 221.176 161.439 220.344 161.439 218.872C161.439 217.4 160.607 216.568 159.439 216.568ZM173.285 218.68V219.608H167.605C167.653 220.632 168.277 221.288 169.333 221.288C170.149 221.288 170.677 220.952 170.853 220.376L173.205 220.488C172.917 222.056 171.333 223.176 169.397 223.176C166.869 223.176 165.125 221.528 165.125 218.872C165.125 216.2 166.869 214.568 169.333 214.568C171.717 214.568 173.285 216.104 173.285 218.68ZM169.317 216.392C168.325 216.392 167.669 217 167.605 218.056H170.933C170.885 217.048 170.373 216.392 169.317 216.392ZM179.57 214.648V216.904C178.226 216.904 177.378 217.672 177.378 218.808V223H175.042V214.728H177.298V215.672C177.65 215.128 178.306 214.648 179.57 214.648ZM190.366 210.856C193.934 210.856 196.574 213.256 196.574 217.016C196.574 220.776 193.934 223.176 190.366 223.176C186.766 223.176 184.142 220.776 184.142 217.016C184.142 213.256 186.766 210.856 190.366 210.856ZM190.366 213.048C188.174 213.048 186.654 214.536 186.654 217.016C186.654 219.48 188.174 220.984 190.366 220.984C192.526 220.984 194.046 219.48 194.046 217.016C194.046 214.536 192.526 213.048 190.366 213.048ZM206.145 211.032V213.208H200.945V215.8H205.457V217.928H200.945V220.808H206.161V223H198.465V211.032H206.145ZM217.769 211.032V213.208H213.769V223H211.289V213.208H207.289V211.032H217.769ZM229.022 211.032V223H226.558V217.96H221.71V223H219.23V211.032H221.71V215.768H226.558V211.032H229.022Z" fill="#FAFBFB"/>
<path d="M655.914 342.414C656.695 341.633 656.695 340.367 655.914 339.586L643.186 326.858C642.405 326.077 641.139 326.077 640.358 326.858C639.577 327.639 639.577 328.905 640.358 329.686L651.672 341L640.358 352.314C639.577 353.095 639.577 354.361 640.358 355.142C641.139 355.923 642.405 355.923 643.186 355.142L655.914 342.414ZM27.5 343L654.5 343V339L27.5 339V343Z" fill="url(#paint7_linear_2414_27956)"/>
<path d="M342.414 26.0858C341.633 25.3047 340.367 25.3047 339.586 26.0858L326.858 38.8137C326.077 39.5948 326.077 40.8611 326.858 41.6422C327.639 42.4232 328.905 42.4232 329.686 41.6422L341 30.3284L352.314 41.6422C353.095 42.4232 354.361 42.4232 355.142 41.6422C355.923 40.8611 355.923 39.5948 355.142 38.8137L342.414 26.0858ZM343 654.5L343 27.5L339 27.5L339 654.5L343 654.5Z" fill="url(#paint8_linear_2414_27956)"/>
<defs>
<linearGradient id="paint0_linear_2414_27956" x1="168.848" y1="138.786" x2="196.154" y2="138.786" gradientUnits="userSpaceOnUse">
<stop offset="0.25" stop-color="#1A82FF"/>
<stop offset="0.5" stop-color="#7A26F3"/>
<stop offset="0.74" stop-color="#D6453B"/>
</linearGradient>
<linearGradient id="paint1_linear_2414_27956" x1="187.34" y1="127.406" x2="176.243" y2="136.863" gradientUnits="userSpaceOnUse">
<stop stop-color="#4C52F9" stop-opacity="0.5"/>
<stop offset="1" stop-color="white"/>
</linearGradient>
<linearGradient id="paint2_linear_2414_27956" x1="177.481" y1="148.483" x2="185.922" y2="142.973" gradientUnits="userSpaceOnUse">
<stop stop-color="#4C52F9" stop-opacity="0.5"/>
<stop offset="1" stop-color="white"/>
</linearGradient>
<linearGradient id="paint3_linear_2414_27956" x1="134.66" y1="139.16" x2="230.34" y2="138.839" gradientUnits="userSpaceOnUse">
<stop offset="0.25" stop-color="#1A82FF"/>
<stop offset="0.5" stop-color="#7A26F3"/>
<stop offset="0.74" stop-color="#D6453B"/>
</linearGradient>
<linearGradient id="paint4_linear_2414_27956" x1="164.801" y1="172.672" x2="194.404" y2="153.28" gradientUnits="userSpaceOnUse">
<stop stop-color="#4C52F9" stop-opacity="0.5"/>
<stop offset="1" stop-color="white"/>
</linearGradient>
<linearGradient id="paint5_linear_2414_27956" x1="197.008" y1="99.7443" x2="168.683" y2="120.21" gradientUnits="userSpaceOnUse">
<stop stop-color="#4C52F9" stop-opacity="0.5"/>
<stop offset="1" stop-color="white"/>
</linearGradient>
<linearGradient id="paint6_linear_2414_27956" x1="153.555" y1="125.136" x2="177.317" y2="139.637" gradientUnits="userSpaceOnUse">
<stop stop-color="#1C313F"/>
<stop offset="1" stop-color="white"/>
</linearGradient>
<linearGradient id="paint7_linear_2414_27956" x1="-154.293" y1="341.5" x2="936.464" y2="341.498" gradientUnits="userSpaceOnUse">
<stop stop-color="#40F953"/>
<stop offset="1" stop-color="#E15A5A"/>
</linearGradient>
<linearGradient id="paint8_linear_2414_27956" x1="341.5" y1="836.293" x2="341.498" y2="-254.464" gradientUnits="userSpaceOnUse">
<stop stop-color="#E15A5A"/>
<stop offset="1" stop-color="#40F953"/>
</linearGradient>
<clipPath id="clip0_2414_27956">
<rect width="42" height="42" fill="white" transform="translate(452 168)"/>
</clipPath>
<clipPath id="clip1_2414_27956">
<rect width="42" height="42" fill="white" transform="translate(456 113)"/>
</clipPath>
<clipPath id="clip2_2414_27956">
<rect width="42" height="42" fill="white" transform="translate(575 135)"/>
</clipPath>
<clipPath id="clip3_2414_27956">
<rect width="42" height="42" fill="white" transform="translate(500 148)"/>
</clipPath>
<clipPath id="clip4_2414_27956">
<rect width="42" height="42" fill="white" transform="translate(530 98)"/>
</clipPath>
<clipPath id="clip5_2414_27956">
<rect width="42" height="42" fill="white" transform="translate(407 126)"/>
</clipPath>
<clipPath id="clip6_2414_27956">
<rect width="42" height="42" fill="white" transform="translate(542 173)"/>
</clipPath>
<clipPath id="clip7_2414_27956">
<rect width="42" height="42" fill="white" transform="translate(116 483)"/>
</clipPath>
<clipPath id="clip8_2414_27956">
<rect width="42" height="42" fill="white" transform="translate(111 435)"/>
</clipPath>
<clipPath id="clip9_2414_27956">
<rect width="42" height="42" fill="white" transform="translate(249 476)"/>
</clipPath>
<clipPath id="clip10_2414_27956">
<rect width="42" height="42" fill="white" transform="translate(164 469)"/>
</clipPath>
<clipPath id="clip11_2414_27956">
<rect width="42" height="42" fill="white" transform="translate(202 440)"/>
</clipPath>
<clipPath id="clip12_2414_27956">
<rect width="42" height="42" fill="white" transform="translate(62 448)"/>
</clipPath>
<clipPath id="clip13_2414_27956">
<rect width="42" height="42" fill="white" transform="translate(212 509)"/>
</clipPath>
<clipPath id="clip14_2414_27956">
<rect width="96" height="96" fill="white" transform="translate(134.5 91)"/>
</clipPath>
</defs>
</svg>
